<?xml version="1.0" encoding="UTF-8"?>
<svg id="Calque_1" data-name="Calque 1" xmlns="http://www.w3.org/2000/svg" viewBox="0 0 907.93 402.71">
  <defs>
    <style>
      .cls-1 {
        opacity: .5;
      }

      .cls-2 {
        fill: #e9d6c8;
      }

      .cls-2, .cls-3, .cls-4, .cls-5 {
        stroke-width: 0px;
      }

      .cls-3 {
        fill: #ea5618;
      }

      .cls-4 {
        fill: #1d1d1b;
      }

      .cls-6 {
        opacity: .85;
      }

      .cls-5 {
        fill: #fff;
      }
    </style>
  </defs>
  <g class="cls-1">
    <line class="cls-4" x1="916.94" y1="162.91" x2="-37.49" y2="165.73"/>
    <rect class="cls-5" x="-37.49" y="164.2" width="954.44" height=".25" transform="translate(-.64 1.72) rotate(-.22)"/>
  </g>
  <g class="cls-1">
    <line class="cls-4" x1="914.89" y1="127.01" x2="-39.54" y2="129.83"/>
    <rect class="cls-5" x="-39.54" y="128.29" width="954.44" height=".25" transform="translate(-.5 1.71) rotate(-.22)"/>
  </g>
  <g class="cls-1">
    <line class="cls-4" x1="919.92" y1="272.89" x2="-34.51" y2="275.71"/>
    <rect class="cls-5" x="-34.51" y="274.18" width="954.44" height=".25" transform="translate(-1.07 1.73) rotate(-.22)"/>
  </g>
  <g class="cls-1">
    <line class="cls-4" x1="922.9" y1="236.76" x2="-31.53" y2="239.58"/>
    <rect class="cls-5" x="-31.53" y="238.05" width="954.44" height=".25" transform="translate(-.93 1.74) rotate(-.22)"/>
  </g>
  <g class="cls-1">
    <rect class="cls-5" x="100.64" y="-5.24" width=".25" height="425.84"/>
  </g>
  <g class="cls-1">
    <rect class="cls-5" x="806.96" y="-6.71" width=".25" height="427.3"/>
  </g>
  <g class="cls-1">
    <rect class="cls-5" x="839.06" y="-8.23" width=".25" height="427.3"/>
  </g>
  <g class="cls-1">
    <rect class="cls-5" x="68.54" y="-7.61" width=".25" height="427.3"/>
  </g>
  <path class="cls-5" d="M284.25,164.87l13.83,38.8c2.77,8.11,2.77,13.27,2.77,15.3h2.77c0-2.03,0-7.19,2.77-15.3l13.83-38.8h13.18l7.84,73.73h-14.57l-3.6-43.68c-.37-4.24,3.5-4.61,3.13-8.94l-1.84-1.2-5.26,15.02-9.68,29.31h-14.57l-9.5-29.12-5.26-15.11-1.84,1.2c-.37,4.33,3.5,4.7,3.13,8.94l-3.6,43.59h-14.57l7.74-73.73h13.28Z"/>
  <path class="cls-5" d="M401.57,164.55v11.91h-38.96v14.4h29.7v11.81h-29.7v23.9h39.88v11.81h-54.5v-73.83h53.57Z"/>
  <path class="cls-5" d="M472.97,196.74v15.42l3.35,25.96h-6.88l-4.44-12.58c-1.27-3.1,1.54-4.16.27-7.27l-1.63-.53-2.26,8.06c-3.53,6.91-9.51,12.31-19.39,12.31-22.19,0-37.5-15.15-37.5-36.86,0-23.03,16.4-36.86,36.78-36.86,12.86,0,25.18,7.62,31.43,19.14l-13.32,3.01c-3.71-6.82-11.32-10.72-18.57-10.72-11.87,0-22.01,10.54-22.01,25.43s10.15,25.78,22.01,25.78,18.03-7.35,19.75-14.53v-6.2h-20.38l-.09-9.57h32.88Z"/>
  <path class="cls-5" d="M545.25,237.98h-15.62l-4.5-13.72h-25.27l-4.5,13.72h-15.62l26.47-73.65h12.68l26.37,73.65ZM521.91,214.32l-6.62-21.17c-1.84-5.89-1.84-9.48-1.84-10.86h-1.84c0,1.38,0,4.97-1.84,10.86l-6.71,21.17h18.84Z"/>
  <g class="cls-6">
    <path class="cls-5" d="M604.84,217.68c0,10.32-7.62,19.94-25.54,19.94-16.73,0-29.7-8.93-30.69-25.19h8.91c.99,9.72,6.93,17.26,21.78,17.26,12.28,0,16.63-5.65,16.63-12,0-9.72-5.25-11.51-21.09-15.18-10.59-2.48-23.26-6.15-23.26-19.94,0-11.21,8.61-18.65,24.25-18.65s25.54,7.74,26.73,22.42h-8.91c-1.29-9.52-6.63-14.48-17.82-14.48-10,0-15.35,3.87-15.35,9.72,0,9.42,7.62,10.71,18.02,13.29,15.94,3.97,26.33,6.65,26.33,22.81Z"/>
  </g>
  <g class="cls-6">
    <path class="cls-5" d="M611.84,200.58c0-21.38,14.07-36.9,35.17-36.9s35.18,15.51,35.18,36.9-14.07,36.99-35.18,36.99-35.17-15.61-35.17-36.99ZM673.14,200.58c0-15.32-8.04-28.94-26.13-28.94s-26.13,13.62-26.13,28.94,8.04,29.04,26.13,29.04,26.13-13.72,26.13-29.04Z"/>
  </g>
  <g class="cls-6">
    <path class="cls-5" d="M733.27,195.74v8.27h-32.59v33.37h-9.19v-73.87h49.55v8.27h-40.35v23.97h32.59Z"/>
  </g>
  <g class="cls-6">
    <path class="cls-5" d="M773.28,171.59h-24.52v-8.26h58.32v8.26h-24.52v65.6h-9.27v-65.6Z"/>
  </g>
  <g>
    <path class="cls-2" d="M141.96,165.09c4.92.23,9.89,2.37,12.96,7.55,8.36,14.09,16.73,28.18,24.8,42.43,4.34,7.65,1.4,17.26-6.03,21.53-7.97,4.59-17.78,2.37-22.51-5.52-8.29-13.83-16.47-27.73-24.36-41.79-6.17-10.99,1.66-24.11,15.13-24.2Z"/>
    <path class="cls-2" d="M172.48,181.26c.56-7.28,5.11-13.33,11.95-15.39,7-2.12,14.76.25,18.46,6.38,8.59,14.26,17.03,28.61,25.15,43.13,4.28,7.66,1.07,17.22-6.46,21.41-7.71,4.29-17.33,2.24-21.93-5.34-8.56-14.12-16.78-28.44-24.95-42.79-1.24-2.18-1.5-4.92-2.21-7.4Z"/>
    <path class="cls-2" d="M101.76,222.21c.04-9.11,7.18-16.18,16.32-16.17,9.24,0,16.42,7.3,16.34,16.6-.08,8.98-7.47,16.08-16.58,15.95-9.18-.13-16.12-7.2-16.08-16.37Z"/>
    <path class="cls-2" d="M218.76,181.26c.04-9.11,7.18-16.18,16.32-16.17,9.24,0,16.42,7.3,16.34,16.6-.08,8.98-7.47,16.08-16.58,15.95-9.18-.13-16.12-7.2-16.08-16.37Z"/>
    <path class="cls-3" d="M141.32,165.09c4.92.23,9.89,2.37,12.96,7.55,8.36,14.09,16.73,28.18,24.8,42.43,4.34,7.65,1.4,17.26-6.03,21.53-7.97,4.59-17.78,2.37-22.51-5.52-8.29-13.83-16.47-27.73-24.36-41.79-6.17-10.99,1.66-24.11,15.13-24.2Z"/>
    <path class="cls-3" d="M189.52,165.09c4.92.23,9.89,2.37,12.96,7.55,8.36,14.09,16.73,28.18,24.8,42.43,4.34,7.65,1.4,17.26-6.03,21.53-7.97,4.59-17.78,2.37-22.51-5.52-8.29-13.83-16.47-27.73-24.36-41.79-6.17-10.99,1.66-24.11,15.13-24.2Z"/>
    <path class="cls-3" d="M101.12,222.21c.04-9.11,7.18-16.18,16.32-16.17,9.24,0,16.42,7.3,16.34,16.6-.08,8.98-7.47,16.08-16.58,15.95-9.18-.13-16.12-7.2-16.08-16.37Z"/>
    <path class="cls-3" d="M218.12,181.26c.04-9.11,7.18-16.18,16.32-16.17,9.24,0,16.42,7.3,16.34,16.6-.08,8.98-7.47,16.08-16.58,15.95-9.18-.13-16.12-7.2-16.08-16.37Z"/>
  </g>
</svg>