<?xml version="1.0" encoding="UTF-8"?>
<svg id="Calque_1" data-name="Calque 1" xmlns="http://www.w3.org/2000/svg" viewBox="0 0 2538 1922">
  <defs>
    <style>
      .cls-1 {
        font-family: NeueMontreal-Regular, 'Neue Montreal';
        font-size: 456.97px;
        opacity: .85;
      }

      .cls-2, .cls-3 {
        stroke-width: 0px;
      }

      .cls-2, .cls-4 {
        fill: #f95302;
      }

      .cls-3 {
        fill: #e8d5c8;
      }

      .cls-5 {
        font-family: PNANoeva-Bold, 'PNA Noeva';
        font-size: 478.55px;
        font-weight: 700;
      }
    </style>
  </defs>
  <g>
    <path class="cls-3" d="M668.18,89.45c77.46,3.61,155.72,37.38,204.06,118.8,131.67,221.73,263.3,443.55,390.37,667.86,68.24,120.46,21.98,271.71-94.87,338.95-125.42,72.17-279.79,37.37-354.33-86.95-130.52-217.67-259.19-436.53-383.37-657.78-97.1-173.01,26.2-379.45,238.14-380.88Z"/>
    <path class="cls-3" d="M1148.69,343.85c8.82-114.54,80.38-209.79,188.02-242.3,110.24-33.3,232.32,3.89,290.5,100.47,135.18,224.4,268.05,450.29,395.88,678.84,67.43,120.55,16.85,271.04-101.68,336.98-121.34,67.5-272.77,35.26-345.18-84.12-134.79-222.21-264.09-447.7-392.78-673.45-19.58-34.35-23.57-77.4-34.76-116.43Z"/>
    <path class="cls-3" d="M30.43,987.4c.66-143.34,112.99-254.65,256.86-254.53,145.49.12,258.52,114.94,257.2,261.26-1.28,141.29-117.5,253.07-260.96,250.98-144.53-2.1-253.76-113.33-253.09-257.71Z"/>
    <path class="cls-3" d="M1877.07,343.9c.66-143.34,112.99-254.65,256.86-254.53,145.49.12,258.52,114.94,257.2,261.26-1.28,141.29-117.5,253.07-260.96,250.98-144.53-2.1-253.76-113.33-253.09-257.71Z"/>
    <path class="cls-2" d="M658.17,89.45c77.46,3.61,155.72,37.38,204.06,118.8,131.67,221.73,263.3,443.55,390.37,667.86,68.24,120.46,21.98,271.71-94.87,338.95-125.42,72.17-279.79,37.37-354.33-86.95-130.52-217.67-259.19-436.53-383.37-657.78-97.1-173.01,26.2-379.45,238.14-380.88Z"/>
    <path class="cls-2" d="M1416.85,89.45c77.46,3.61,155.72,37.38,204.06,118.8,131.67,221.73,263.3,443.55,390.37,667.86,68.24,120.46,21.98,271.71-94.87,338.95-125.42,72.17-279.79,37.37-354.33-86.95-130.52-217.67-259.19-436.53-383.37-657.78-97.1-173.01,26.2-379.45,238.14-380.88Z"/>
    <path class="cls-2" d="M20.42,987.4c.66-143.34,112.99-254.65,256.86-254.53,145.49.12,258.52,114.94,257.2,261.26-1.28,141.29-117.5,253.07-260.96,250.98-144.53-2.1-253.76-113.33-253.09-257.71Z"/>
    <path class="cls-2" d="M1867.06,343.9c.66-143.34,112.99-254.65,256.86-254.53,145.49.12,258.52,114.94,257.2,261.26-1.28,141.29-117.5,253.07-260.96,250.98-144.53-2.1-253.76-113.33-253.09-257.71Z"/>
  </g>
  <text class="cls-4" transform="translate(21.02 1857.73)"><tspan class="cls-5" x="0" y="0">MEGA</tspan><tspan class="cls-1" x="1237.03" y="0">SOFT</tspan></text>
  <g>
    <path class="cls-3" d="M2435.9,142.13c-30.36,0-55.06-24.71-55.06-55.07s24.71-55.06,55.06-55.06,55.07,24.7,55.07,55.06-24.7,55.07-55.07,55.07ZM2435.9,39.44c-26.26,0-47.62,21.37-47.62,47.62s21.36,47.63,47.62,47.63,47.63-21.37,47.63-47.63-21.36-47.62-47.63-47.62Z"/>
    <path class="cls-3" d="M2454.89,115.19l-12.92-18.39c-1.6.12-2.85.18-3.76.18h-14.8v18.22h-8.55v-59.89h23.36c7.75,0,13.86,1.86,18.31,5.57,4.45,3.7,6.67,8.81,6.67,15.31,0,4.62-1.14,8.56-3.42,11.81-2.28,3.25-5.53,5.62-9.75,7.1l14.2,20.1h-9.33ZM2450.35,86.19c2.85-2.34,4.28-5.67,4.28-10.01s-1.42-7.66-4.28-9.97c-2.85-2.31-6.99-3.46-12.4-3.46h-14.54v26.95h14.54c5.42,0,9.55-1.17,12.4-3.51Z"/>
  </g>
  <g>
    <path class="cls-2" d="M2434.09,142.13c-30.36,0-55.06-24.71-55.06-55.07s24.71-55.06,55.06-55.06,55.07,24.7,55.07,55.06-24.7,55.07-55.07,55.07ZM2434.09,39.44c-26.26,0-47.62,21.37-47.62,47.62s21.36,47.63,47.62,47.63,47.63-21.37,47.63-47.63-21.36-47.62-47.63-47.62Z"/>
    <path class="cls-2" d="M2453.07,115.19l-12.92-18.39c-1.6.12-2.85.18-3.76.18h-14.8v18.22h-8.55v-59.89h23.36c7.75,0,13.86,1.86,18.31,5.57,4.45,3.7,6.67,8.81,6.67,15.31,0,4.62-1.14,8.56-3.42,11.81-2.28,3.25-5.53,5.62-9.75,7.1l14.2,20.1h-9.33ZM2448.54,86.19c2.85-2.34,4.28-5.67,4.28-10.01s-1.42-7.66-4.28-9.97c-2.85-2.31-6.99-3.46-12.4-3.46h-14.54v26.95h14.54c5.42,0,9.55-1.17,12.4-3.51Z"/>
  </g>
</svg>