<?xml version="1.0" encoding="UTF-8"?>
<svg id="Calque_1" data-name="Calque 1" xmlns="http://www.w3.org/2000/svg" viewBox="0 0 131 67">
  <defs>
    <style>
      .cls-1 {
        fill: #f95302;
      }

      .cls-1, .cls-2 {
        stroke-width: 0px;
      }

      .cls-2 {
        fill: #fff;
      }
    </style>
  </defs>
  <g>
    <path class="cls-1" d="M34.24,4.39c4.1.06,8.3,1.72,10.99,5.95,7.33,11.51,14.66,23.03,21.76,34.69,3.81,6.26,1.61,14.34-4.46,18.09-6.52,4.03-14.74,2.44-18.89-4.01-7.26-11.3-14.43-22.67-21.37-34.17-5.42-8.99.76-20.12,11.97-20.54Z"/>
    <path class="cls-1" d="M74.38,3.13c4.1.06,8.3,1.72,10.99,5.95,7.33,11.51,14.66,23.03,21.76,34.69,3.81,6.26,1.61,14.34-4.46,18.09-6.52,4.03-14.74,2.44-18.89-4.01-7.26-11.3-14.43-22.67-21.37-34.17-5.42-8.99.76-20.12,11.97-20.54Z"/>
    <path class="cls-1" d="M1.99,52.95c-.2-7.58,5.56-13.66,13.17-13.89,7.7-.23,13.87,5.65,14.04,13.4.17,7.48-5.8,13.58-13.39,13.71-7.65.13-13.61-5.58-13.82-13.22Z"/>
    <path class="cls-1" d="M98.62,15.85c-.2-7.58,5.56-13.66,13.17-13.89,7.7-.23,13.87,5.65,14.04,13.4.17,7.48-5.8,13.58-13.39,13.71-7.65.13-13.61-5.58-13.82-13.22Z"/>
  </g>
  <g>
    <path class="cls-2" d="M33.49,4.44c4.1.06,8.3,1.72,10.99,5.95,7.33,11.51,14.66,23.03,21.76,34.69,3.81,6.26,1.61,14.34-4.46,18.09-6.52,4.03-14.74,2.44-18.89-4.01-7.26-11.3-14.43-22.67-21.37-34.17-5.42-8.99.76-20.12,11.97-20.54Z"/>
    <path class="cls-2" d="M73.6,3.27c4.1.06,8.3,1.72,10.99,5.95,7.33,11.51,14.66,23.03,21.76,34.69,3.81,6.26,1.61,14.34-4.46,18.09-6.52,4.03-14.74,2.44-18.89-4.01-7.26-11.3-14.43-22.67-21.37-34.17-5.42-8.99.76-20.12,11.97-20.54Z"/>
    <path class="cls-2" d="M1.24,53c-.2-7.58,5.56-13.66,13.17-13.89,7.7-.23,13.87,5.65,14.04,13.4.17,7.48-5.8,13.58-13.39,13.71-7.65.13-13.61-5.58-13.82-13.22Z"/>
    <path class="cls-2" d="M97.87,15.9c-.2-7.58,5.56-13.66,13.17-13.89,7.7-.23,13.87,5.65,14.04,13.4.17,7.48-5.8,13.58-13.39,13.71-7.65.13-13.61-5.58-13.82-13.22Z"/>
  </g>
</svg>