<?xml version="1.0" encoding="UTF-8"?>
<svg id="Layer_1" data-name="Layer 1" xmlns="http://www.w3.org/2000/svg" viewBox="0 0 1288.8 324.86">
  <defs>
    <style>
      .cls-1 {
        font-family: SalvaTest-Medium, 'Salva Test';
        font-size: 171.85px;
        font-weight: 500;
      }

      .cls-1, .cls-2 {
        fill: #fff;
      }

      .cls-2 {
        stroke-width: 0px;
      }
    </style>
  </defs>
  <text class="cls-1" transform="translate(306.56 269.21)"><tspan x="0" y="0">After Efects</tspan></text>
  <g>
    <path class="cls-2" d="M267.75,149.38c-.14-23.05-17.27-39.39-40.32-39.4-46.88,0-93.76,0-140.64,0-23.24.01-40.09,16.65-40.13,39.87-.08,45.04-.08,90.06,0,135.1.04,23.32,16.74,39.88,40.02,39.91,23.45.02,46.88,0,70.33,0s46.88.02,70.32,0c23.21-.02,40.24-16.13,40.4-39.23.31-45.41.28-90.83.02-136.24ZM144.95,260.88c-.89-.03-2.09-1.62-2.51-2.73-2.07-5.56-4.02-11.19-5.82-16.84-.69-2.16-1.78-2.98-4.07-2.96-9.5.11-19,.11-28.5,0-2.29-.02-3.42.77-4.08,2.94-1.66,5.57-3.68,11.03-5.23,16.64-.8,2.88-2.26,3.79-5.14,3.67-5.01-.19-10.05-.05-16-.05,11.25-32.42,22.14-63.87,33.31-96.1,6.64,0,14.46-.09,22.27.13.85.02,2.03,1.69,2.44,2.82,7.25,19.95,14.4,39.95,21.57,59.94,3.38,9.4,6.76,18.79,10.12,28.19.46,1.27.81,2.58,1.4,4.48-6.95,0-13.37.11-19.77-.12ZM235.67,224.92c.39,4.46-1.97,5.58-5.87,5.53-11.77-.16-23.55-.22-35.32-.29-1.47,0-2.94.15-4.4.23.24,7.24,4.42,12.33,11.47,14.62,7.94,2.58,15.76,1.18,23.61-.47,1.22-.25,2.42-.59,4.3-1.06,0,4.98.14,9.4-.11,13.79-.06,1.04-1.26,2.6-2.26,2.92-13.13,4.24-26.43,5.24-39.29-.56-11.41-5.13-16.67-15.04-18.35-27-1.07-7.49-.38-14.89,2.21-22.05,8.97-24.84,33.84-27.43,49.36-19.1,10.51,5.64,14.08,15.71,14.81,26.99.14,2.13-.35,4.31-.16,6.43Z"/>
    <path class="cls-2" d="M106.61,220.1h23.2c-3.9-12.58-7.69-24.79-11.78-37.97-3.97,13.2-7.65,25.46-11.42,37.97Z"/>
    <path class="cls-2" d="M201.24,203.31c-6.38,1.01-10.98,6.43-11.2,13.28.33.12.67.36,1.02.36,7.07.05,14.14.11,21.21.07,4.36-.03,5.16-1.24,3.8-5.38-1.99-6.04-7.97-9.4-14.83-8.32Z"/>
  </g>
</svg>