<?xml version="1.0" encoding="UTF-8"?>
<svg id="Layer_1" data-name="Layer 1" xmlns="http://www.w3.org/2000/svg" viewBox="0 0 1002.31 410.03">
  <defs>
    <style>
      .cls-1 {
        fill: #fff;
        stroke-width: 0px;
      }
    </style>
  </defs>
  <path class="cls-1" d="M243.59,148.91c-10.03,11.99-23.07,17.57-38.61,17.61-2.16,0-4.32.07-6.48.1-.2.13-.4.28-.6.42-.15.1-.31.18-.47.23-.05,0-.1.01-.15.03-.03.01-.05.01-.08.01-1.44.09-2.89.17-4.33.25-11.44.62-22.88.84-34.32-.35-.11,0-.23-.02-.34-.03-.04-.02-.07-.04-.11-.07-.41-.2-.76-.5-1.03-.86-.1-.12-.18-.25-.26-.39-.02-.04-.04-.09-.05-.13-1.1-2.66-.78-5.47-.79-8.24-.02-25.93,0-51.87-.02-77.81,0-7.4-.11-7.49-7.53-7.5-10.65-.02-21.3.04-31.95-.04-2.43-.02-5.07.43-6.99-1.76,1.37-1.45,3.14-.76,4.71-.77,29.94-.04,59.89-.25,89.83.04,25.89.24,44.82,14.75,49.9,39.92,2.89,14.38-.74,27.87-10.33,39.34Z"/>
  <path class="cls-1" d="M160.09,219.6c-.01,1.96.11,3.99-1.37,5.62-.11,12.63-.22,25.26-.33,37.9-1.12,1.17-2.59,1.47-4.08,1.47-16.19.01-32.38.54-48.56-.26-.77-.13-1.48-.39-2.15-.73-.26-.13-.5-.27-.74-.43-.44-.26-.87-.57-1.28-.89-23.41-4.71-41.17-23.89-39.9-50.86.94-19.93,16.62-40.83,40.95-44.24,1.74-2.26,4.3-2.34,6.79-2.36,14.29-.11,28.58-.09,42.87-.01,1.55.01,3.14.05,4.47.92.23.14.46.32.67.52.05.19.18.32.38.37.28.19.52.38.74.59,1.85,1.8,1.5,4.32,1.54,6.64.13,8.4-.02,16.79-.04,25.19v2.31c0,.97,0,1.94.01,2.91.16,5.11.06,10.22.03,15.34Z"/>
  <path class="cls-1" d="M157.43,166.25c-15.21.03-30.43.07-45.64.1-3.08,0-6.18-.23-9.16.83-4.49-2.71-9.84-3.18-14.46-5.7-18.98-10.36-28.06-26.47-26.3-47.73,1.59-19.23,12.29-32.67,30.17-40.16,5.55-2.33,11.38-3.46,17.44-3.21,14.61.07,29.22.21,43.83.14,3.18-.02,4.33.82,4.31,4.17-.15,30.52-.15,61.04-.19,91.57Z"/>
  <path class="cls-1" d="M104.64,262.98c17.92.05,35.83.1,53.75.14-.05,18.41,1.55,36.9-.97,55.19-2.64,19.2-14.06,31.86-32.14,38.61-22.66,8.46-48.97-3.66-58.89-24.55-10.62-22.34-3.22-48.36,17.75-61.74,5.42-3.46,11.15-5.65,17.42-6.64.93-.62,1.82-1.36,3.07-1Z"/>
  <path class="cls-1" d="M254.64,215.95c-.6,26.67-23.34,48.83-51.37,47.01-19.45-1.27-37-13.7-43.72-36.08-.18-.59-.55-1.11-.83-1.66,0-6.99-.01-13.98-.01-20.97.37-1.8.82-3.54,1.34-5.21,4.58-14.81,14.7-24.81,29.71-30.58,1.02-.39,2.05-.69,3.11-.9,1.65-.34,3.33-.49,5.03-.52.2-.01.4-.02.6-.02,7.73.42,15.47-.44,23.12,2.09,20.03,6.62,33.5,25.85,33.02,46.84Z"/>
  <path class="cls-1" d="M685.68,181.09c14.32-16.59,39.86-14.57,51.39,2.28,1.86,2.72,2.53,1.9,4.13-.05,6.94-8.45,15.87-13.42,26.89-13.74,17.84-.53,32.52,12.3,34.59,30.16,2.3,19.86.57,39.81.98,59.72.22,10.78.04,10.79-10.67,10.79q-8.09,0-8.09-8.01c0-17.79.14-35.58-.05-53.37-.13-12.66-8.73-20.98-20.91-20.74-10.48.21-19.1,8.85-19.14,19.42-.08,19.45-.11,38.91.06,58.36.03,3.37-.6,4.78-4.27,4.41-3.46-.35-7-.32-10.47,0-3.45.31-4.44-.72-4.4-4.28.19-18.95.2-37.91.04-56.86-.07-8.72-3.72-15.54-11.94-19.43-12.57-5.93-27.94,3.49-28.08,17.5-.2,19.28-.17,38.57.05,57.86.05,4.03-.76,5.68-5.08,5.22-4.42-.47-10.33,1.37-12.96-.88-2.77-2.36-.81-8.42-.82-12.86-.07-26.6.06-53.2-.14-79.8-.03-3.85,1.03-4.88,4.67-4.51,3.13.32,6.35.35,9.47,0,4.02-.46,5.41,1.05,4.78,4.89-.15.92-.02,1.89-.02,3.93Z"/>
  <path class="cls-1" d="M637.92,184.36q0-11.85-11.69-11.85-6.96,0-7.19,6.86c0,.23-.31.46-.65.92-.48-.4-.95-.79-1.4-1.19-18.99-16.51-48.11-10.92-60.87,10.89-9.15,15.64-9.65,32.16-1.81,48.18,7.62,15.6,20.62,24.25,38.53,23.7,9.75-.3,18.45-3.91,26.23-11.4,0,5.73.2,10.48-.04,15.22-.93,18.4-19.16,31.34-36.86,26.35-3.27-.92-6.36-5.13-9.47-2.87-2.81,2.05-4.08,6.24-6.01,9.49-.5.84-.84,1.82-1.47,2.54-1.75,1.99-.98,2.81,1.09,4,8.53,4.9,17.5,6.71,27.37,6.04,24.18-1.63,44.18-22.4,44.23-46.64.05-26.74.01-53.49.01-80.24ZM593.29,243.29c-14.13-.08-25.22-12.46-25.3-28.05-.07-15.27,12.74-27.99,25.6-27.12,14.73.03,25.59,12,25.53,28.17-.06,14.92-11.68,27.07-25.83,27Z"/>
  <path class="cls-1" d="M922.54,180.79q0-8.45-8.52-8.45-9.69,0-10.64,10.15c-1.73-1.27-3.32-2.32-4.79-3.51-16.67-13.58-43.58-12.31-58.94,2.63-14,13.62-18.62,30.07-15.99,49.13,3.51,25.45,25.45,43.99,50.78,42.13,10.92-.8,20.52-5.29,28.67-12.8,1.81,3.41-1.41,8.08,1.83,9.76,2.76,1.43,6.82.37,10.31.4.84.01,1.69-.11,2.5.02,3.81.63,4.92-.76,4.9-4.73-.2-28.24-.11-56.49-.11-84.73ZM861.36,252.22c-15.82-6.14-24.39-26.97-17.12-44.17,6.01-14.22,20.06-22.35,34.12-19.7,14.27,2.69,25.1,16.72,25.37,32.86.39,23.1-21.27,39.2-42.37,31.01Z"/>
  <path class="cls-1" d="M440.14,124.45c11.64,0,23.29.09,34.93-.06,2.92-.04,4.22.52,3.95,3.78-.39,4.59,1.4,10.66-.92,13.45-2.45,2.94-8.72.85-13.32.89-13.64.12-27.28.14-40.91-.03-3.05-.04-3.96.73-3.91,3.84.19,10.8.19,21.6,0,32.4-.06,3.07.73,3.91,3.84,3.86,12.3-.19,24.62.04,36.92-.16,3.32-.05,4.83.52,4.5,4.25-.41,4.6,1.45,10.66-.86,13.49-2.43,2.98-8.72.83-13.31.91-8.81.15-17.63.23-26.44-.05-3.64-.11-4.73.72-4.68,4.56.22,20.1.02,40.21.18,60.31.03,3.4-.72,4.75-4.33,4.44-3.8-.33-7.66-.25-11.47-.01-2.73.17-3.27-.85-3.27-3.38.07-46.35.08-92.71-.02-139.06,0-2.98,1.03-3.48,3.69-3.45,11.81.13,23.62.05,35.43.05Z"/>
  <path class="cls-1" d="M502.96,221.27c0-14.77.11-29.55-.08-44.32-.05-3.52.49-5.11,4.5-4.7,4.6.47,10.82-1.51,13.51.82,3.12,2.7.94,9.05.96,13.8.11,26.27-.03,52.54.14,78.81.02,3.73-.86,4.99-4.65,4.64-4.6-.42-10.68,1.44-13.47-.88-2.92-2.43-.8-8.71-.86-13.3-.15-11.62-.05-23.24-.05-34.86Z"/>
  <path class="cls-1" d="M157.81,166.62c.11.16.21.32.29.49.79,1.51.42,3.2.44,4.82.08,10.77.12,21.55.17,32.32.48-.95.92-1.92,1.34-2.9,2.04-4.74,3.6-9.69,6.69-13.97,7.69-10.63,17.96-17.12,30.54-20.08.05-.02.1-.03.15-.03.35-.09.71-.17,1.07-.25v-.4c-13.57-.45-27.13-.44-40.69,0ZM189.76,168.46c-15.01,5.77-25.13,15.77-29.71,30.58.02-8.4.17-16.79.04-25.19-.04-2.32.31-4.84-1.54-6.64,11.44,1.19,22.88.97,34.32.35-1.06.21-2.09.51-3.11.9Z"/>
  <path class="cls-1" d="M500.27,141.48c-.04-6.5,5.77-12.12,12.45-12.04,6.52.07,12.1,5.49,12.17,11.82.08,6.98-5.47,13.23-12.21,12.83-7.01-.41-11.86-3.92-12.41-12.61Z"/>
  <path class="cls-1" d="M104.64,262.98c-.96.53-1.83,1.35-3.07,1,0-.57,0-1.13.01-1.7,1.09-.08,2.26-.52,3.06.7Z"/>
</svg>