<?xml version="1.0" encoding="UTF-8"?>
<svg id="Layer_1" data-name="Layer 1" xmlns="http://www.w3.org/2000/svg" viewBox="0 0 1080.41 366.23">
  <defs>
    <style>
      .cls-1 {
        font-family: SalvaTest-Medium, 'Salva Test';
        font-size: 171.85px;
        font-weight: 500;
      }

      .cls-1, .cls-2 {
        fill: #fff;
      }

      .cls-2 {
        stroke-width: 0px;
      }
    </style>
  </defs>
  <g>
    <path class="cls-2" d="M254.24,113.2c-4.36-13.98-13.71-22.64-28.01-25.89-1.33-.3-2.69-.48-4.03-.71H71.01c-1.77.32-3.56.58-5.33.98-14.33,3.22-25.59,15.43-27.65,29.97-.24,1.67-.43,3.37-.43,5.05-.02,48.57-.14,97.13.05,145.69.06,15.08,7.48,26.03,20.91,32.85,4.72,2.4,9.82,3.44,15.09,3.45,48.61.03,97.22.05,145.83,0,17.9-.02,32.97-13.22,35.71-31.05.12-.79.28-1.57.43-2.35V120.04c-.45-2.28-.7-4.63-1.39-6.84ZM174.51,248.91c-6.02,0-12.03-.02-18.05.02-.82,0-1.18-.23-1.44-1.04-2.86-9.07-5.79-18.12-8.64-27.19-.32-1.02-.76-1.34-1.84-1.34-10.1.05-20.19.04-30.28,0-.99,0-1.47.23-1.78,1.26-2.7,9.08-5.48,18.13-8.22,27.2-.2.68-.4,1.12-1.27,1.12-5.98-.04-11.95-.02-17.93-.02-.2,0-.39-.04-.73-.08.6-1.93,1.17-3.81,1.77-5.67,8.66-26.97,17.32-53.95,25.98-80.92,1.74-5.41,3.48-10.82,5.18-16.24.27-.86.62-1.22,1.57-1.21,7.31.04,14.62.04,21.93,0,.9,0,1.25.3,1.52,1.13,7.29,22.47,14.6,44.93,21.91,67.39,3.65,11.23,7.29,22.46,10.93,33.69.18.57.33,1.15.52,1.84-.45.03-.79.08-1.14.08ZM207.85,247.68c0,.67.09,1.26-.94,1.25-5.89-.04-11.79-.02-17.68-.03-.11,0-.23-.05-.49-.11v-75.06c.41-.03.76-.07,1.11-.07,5.61,0,11.22.02,16.83-.02.9,0,1.17.24,1.17,1.15-.02,19.13-.02,38.26-.02,57.39,0,5.17,0,10.33.01,15.5ZM198.12,162.89c-6.07,0-10.57-4.37-10.53-10.26.04-6.05,4.58-10.32,10.91-10.29,6.08.04,10.4,4.42,10.38,10.53-.02,5.8-4.53,10-10.77,10.01Z"/>
    <path class="cls-2" d="M115.97,204.98h26.67c-4.7-15.06-9.93-29.74-13.59-44.97-3.34,15.29-8.47,30-13.09,44.97Z"/>
  </g>
  <text class="cls-1" transform="translate(282.1 258.15)"><tspan x="0" y="0">Illustrator</tspan></text>
</svg>