<?xml version="1.0" encoding="UTF-8"?>
<svg id="Layer_1" data-name="Layer 1" xmlns="http://www.w3.org/2000/svg" viewBox="0 0 963.25 249.5">
  <defs>
    <style>
      .cls-1, .cls-2 {
        isolation: isolate;
      }

      .cls-2 {
        font-family: Arial-BoldItalicMT, Arial;
        font-size: 140.41px;
        font-style: italic;
        font-weight: 700;
      }

      .cls-2, .cls-3 {
        fill: #fff;
      }

      .cls-3 {
        stroke-width: 0px;
      }
    </style>
  </defs>
  <path class="cls-3" d="M49.69,39.94v128.49h128.48V39.94H49.69ZM119.65,139.99c0,3.09-.41,6.12-1.65,8.98-1.72,3.98-4.64,6.72-8.74,8.07-5.66,1.86-11.3,1.79-16.79-.63-4.11-1.81-6.96-4.96-8.91-8.96-.03-.07-.04-.15-.07-.29,3.24-1.96,6.49-3.93,9.8-5.93.13.21.24.39.37.57.86,1.22,1.63,2.53,2.62,3.65,1.4,1.6,3.31,2.08,5.39,1.96.39-.03.79-.04,1.18-.12,2.72-.53,4.17-2.16,4.47-5.1.1-.95.14-1.92.14-2.87,0-13.21,0-26.41,0-39.61q0-.88.88-.88c3.51,0,7.02.02,10.53,0,.58,0,.79.12.79.75-.02,13.47-.01,26.95-.02,40.42ZM166.89,148.01c-1.85,4.42-5.25,7.18-9.66,8.78-3.72,1.36-7.58,1.7-11.52,1.42-3.45-.25-6.75-1.03-9.85-2.56-4.09-2.02-7.23-5.05-9.44-9.04-.11-.22-.22-.44-.35-.71,3.28-1.91,6.53-3.8,9.83-5.72.16.23.31.44.46.66,1.6,2.45,3.52,4.59,6.32,5.69,3.2,1.25,6.48,1.45,9.69.07,4.35-1.86,4.95-6.99,1.07-9.71-1.69-1.19-3.64-2.01-5.51-2.92-2.92-1.42-5.94-2.65-8.81-4.17-3.03-1.6-5.58-3.82-7.31-6.85-1.29-2.25-1.89-4.69-2.08-7.26-.21-2.85.14-5.59,1.34-8.18,2.18-4.73,5.98-7.55,10.96-8.7,5.13-1.2,10.2-.98,15.01,1.39,3.36,1.66,5.68,4.38,7.56,7.66-3.14,2.02-6.26,4.02-9.44,6.07-.13-.21-.26-.39-.37-.58-.76-1.25-1.62-2.45-2.86-3.28-2.28-1.51-4.77-1.77-7.28-.75-3.76,1.52-3.62,6.33-1.59,8.36,1.24,1.23,2.76,2,4.31,2.72,3.37,1.56,6.78,3.02,10.1,4.67,2.9,1.44,5.49,3.34,7.49,5.96,1.96,2.57,2.87,5.5,3.1,8.7.2,2.85-.06,5.63-1.17,8.28Z"/>
  <g id="layer1">
    <g id="text2857" class="cls-1">
      <text class="cls-2" transform="translate(192.11 170.1)"><tspan x="0" y="0">JavaScript</tspan></text>
    </g>
  </g>
</svg>