<?xml version="1.0" encoding="UTF-8"?>
<svg id="Layer_1" data-name="Layer 1" xmlns="http://www.w3.org/2000/svg" viewBox="0 0 787.53 340.58">
  <defs>
    <style>
      .cls-1 {
        fill: #fff;
        stroke-width: 0px;
      }
    </style>
  </defs>
  <path class="cls-1" d="M242.17,109.82c.04-3.3-1.15-5.14-3.93-6.7-11-6.19-21.95-12.48-32.81-18.9-3.1-1.83-5.7-1.82-8.79.01-11.01,6.51-22.1,12.9-33.25,19.17-2.51,1.41-3.41,3.16-3.39,5.95.09,11.81.09,23.63-.08,35.44-.03,1.77-.57,4.41-1.79,5.15-9.6,5.87-19.42,11.37-30.32,17.65v-6.64c0-23.78-.05-47.57.04-71.36.01-3.41-.55-6-3.86-7.86-11.44-6.42-22.69-13.18-34.18-19.52-1.69-.93-4.73-1.05-6.38-.15-11.66,6.38-23.2,12.98-34.55,19.89-1.81,1.1-3.48,4.11-3.49,6.24-.19,42.09-.17,84.18,0,126.27.01,1.89,1.41,4.62,2.99,5.54,24.07,14.12,48.29,28,72.45,41.97,2.71,1.57,4.99,1.48,7.82-.17,23.82-13.87,47.72-27.62,71.68-41.26,2.88-1.63,3.8-3.54,3.76-6.73-.17-11.64.02-23.29-.14-34.93-.04-3.04.96-4.83,3.64-6.33,10.28-5.75,20.39-11.83,30.7-17.55,2.89-1.61,3.9-3.56,3.87-6.75-.13-12.81-.18-25.62,0-38.43ZM165.97,112.49c11.02,6.42,20.9,12.14,30.72,17.96.7.41,1.4,1.52,1.41,2.3.09,11.24.06,22.48.06,35-4.54-2.62-8.05-4.66-11.58-6.68-5.91-3.39-11.87-6.68-17.69-10.22-1.24-.75-2.77-2.35-2.79-3.58-.22-11.12-.13-22.24-.13-34.78ZM121.59,166.74c.02,3.22-.88,5.14-3.78,6.73-9.15,5.01-18.14,10.33-28.09,16.04-.2-2.67-.45-4.54-.45-6.41-.01-22.96.09-45.91-.04-68.87-.01-3.43,1-5.5,4.02-7.15,8.16-4.47,16.16-9.22,24.24-13.82.96-.55,2.03-.9,4.09-1.8v6.91c-.02,22.79-.1,45.58.01,68.37ZM76.43,72.57c7.02-5.02,12.89-5.16,19.95.04,6.48,4.77,13.92,8.27,22.16,13.04-10.87,6.23-20.58,11.84-30.36,17.33-.86.48-2.41.6-3.23.14-9.92-5.53-19.78-11.21-30.67-17.43,8.09-4.72,15.51-8.37,22.15-13.12ZM121.57,255.17c-6.16-3.45-11.46-6.37-16.71-9.38-16.71-9.6-33.44-19.16-50.04-28.94-1.65-.97-3.46-3.4-3.46-5.17-.19-39.25-.13-78.5-.11-117.76,0-.49.15-.98.42-2.69,7.86,4.47,14.88,9.26,22.53,12.6,7.83,3.42,9.54,8.59,9.36,16.62-.54,23.78-.13,47.57-.23,71.36-.02,3.34.85,5.46,3.98,7.15,10.23,5.53,20.23,11.49,30.42,17.09,2.83,1.56,3.97,3.43,3.91,6.7-.19,10.44-.07,20.89-.07,32.42ZM121.27,211.27c-9.11-5.44-18.43-10.52-28.52-16.21,3.84-2.37,6.97-4.4,10.19-6.26,18.7-10.77,37.46-21.44,56.1-32.32,2.83-1.64,4.85-1.68,7.65.05,7.77,4.79,15.77,9.2,23.66,13.79,1.23.71,2.4,1.54,4.31,2.79-7.97,4.54-15.27,8.71-22.56,12.87-14.71,8.4-29.46,16.74-44.1,25.26-2.45,1.42-4.18,1.55-6.73.03ZM198.1,211.05c-.08,1.8-1.23,4.32-2.67,5.17-21.75,12.74-43.64,25.26-65.5,37.81-.4.23-.9.29-2.19.68,0-11.87-.06-23.13.11-34.39.02-1.16,1.21-2.75,2.3-3.38,21.86-12.56,43.78-25,65.7-37.46.41-.23.91-.3,2.34-.75v10.4c.01,7.31.2,14.63-.09,21.92ZM199.48,124.8c-9.92-5.57-19.74-11.33-30.5-17.57,7.87-4.53,15.31-7.97,21.75-12.75,7.32-5.44,13.36-5.36,20.66.03,6.46,4.77,13.88,8.22,21.76,12.77-10.7,6.19-20.28,11.78-29.94,17.23-1.01.57-2.81.81-3.73.29ZM236.17,147.17c0,.87-.46,2.15-1.12,2.54-9.94,5.87-19.94,11.62-31.05,18.05,0-7.36-.05-13.57.01-19.77.06-5.62-1.6-12.32.88-16.56,2.5-4.25,9.17-6.05,14.04-8.89,5.4-3.15,10.82-6.26,17.29-10,0,12.42.02,23.53-.05,34.63Z"/>
  <path class="cls-1" d="M397.36,164.7c-.02-6.75-.13-6.75-6.98-6.69q-8.26.07-9.79,7.54c-17.91-12.48-34.3-11.76-47,2.06-12.17,13.25-12.71,35.1-1.15,49,5.17,6.21,11.67,10.42,19.66,11.83,10.88,1.91,20.67-.36,28.55-9.25q1.25,8.26,9.09,8.23c1,0,2.01-.12,2.99.02,3.86.53,4.75-1.34,4.72-4.9-.13-19.28-.03-38.56-.09-57.84ZM360.59,214.95c-11.81.02-20.61-9.34-20.71-22.06-.11-12.46,8.91-22.29,20.47-22.31,12.19-.02,20.85,9.22,20.87,22.3.02,12.63-8.77,22.04-20.63,22.07Z"/>
  <path class="cls-1" d="M521.39,158.03c-2.42.05-4.83.2-7.28.31-.25,2.83-.44,5.08-.64,7.5-18.06-12.45-34.16-12.09-46.71.82-12.56,12.93-13.87,34.36-2.64,49.03,5.89,7.68,13.74,12.21,23.66,13.15,10.03.96,18.44-2.13,25.75-10.11.23,3.48.39,5.77.55,8.2h15.14v-68.92c-2.88,0-5.36-.04-7.83.02ZM492.79,214.93c-11.64-.01-20.37-9.34-20.36-21.75.01-13.39,8.37-22.61,20.49-22.59,11.94.02,21.06,9.81,20.93,22.47-.13,12.33-9.33,21.89-21.06,21.87Z"/>
  <path class="cls-1" d="M668.62,164.03c-9.91-8.35-21.44-9.55-33.33-5.53-16.08,5.45-24.76,20.37-23.49,39.1,1.03,15.12,11.8,27.06,27.61,30.64,15.32,3.46,31.22-2.29,39.44-14.53-3.2-2.49-6.44-5-9.86-7.65-9.15,8.55-18.9,14.38-31.48,7.98-6.02-3.07-9.3-8.13-10.19-15.37h53.85c1.49-14.17-2.04-25.79-12.55-34.64ZM627.95,186.63c.16-9.81,7.67-17.23,17.82-17.86,10.82-.67,18.9,6.09,20.65,17.86h-38.47Z"/>
  <path class="cls-1" d="M319.7,212.36v15.09h-16.95c-9.14-.01-18.29-.08-27.43.03-2.82.04-4.21-.6-4.2-3.84.11-32.57.09-65.15.12-97.72,0-.8.17-1.59.31-2.81h16.12v89.25h32.03Z"/>
  <path class="cls-1" d="M611.35,158.01c-4.21,10.9-7.97,20.61-11.71,30.33-4.58,11.92-9.06,23.88-13.87,35.71-.6,1.48-2.81,2.66-4.52,3.23-1.64.55-3.61.15-5.44.14-11.24-.05-11.3-.03-15.29-10.35-7.12-18.41-14.16-36.85-21.22-55.29-.34-.89-.56-1.84-1.09-3.62,5.15,0,9.89-.27,14.55.19,1.09.11,2.24,2.58,2.86,4.16,6.21,15.89,12.31,31.81,18.94,49.03,3.34-8.55,6.28-16,9.16-23.46,3.35-8.66,6.82-17.27,9.91-26.01,1.16-3.27,2.9-4.39,6.24-4.12,3.42.28,6.88.06,11.48.06Z"/>
  <path class="cls-1" d="M708.38,221.67c.02,4.6-1.29,5.94-5.83,5.84-10.13-.21-10.13.02-10.13-9.9,0-28.92,0-57.84,0-86.75-.01-2.45-.01-4.89-.01-7.57h15.58c.11,1.74.29,3.19.29,4.65.01,31.24-.09,62.48.11,93.73Z"/>
  <path class="cls-1" d="M454.1,171.65c-.07.79-2.37,1.94-3.68,1.99-6.48.21-12.97.26-19.45.05-3.49-.11-4.65,1.13-4.62,4.58.11,14.8.03,29.59-.01,44.39,0,1.3-.2,2.6-.38,4.7-4.59,0-8.73.17-12.84-.12-1-.07-2.7-1.66-2.7-2.55,0-21.77.16-43.54.32-65.31.01-.29.33-.57.67-1.13h42.86c0,4.57.18,9.01-.17,13.4Z"/>
</svg>