<?xml version="1.0" encoding="UTF-8"?>
<svg id="Layer_1" data-name="Layer 1" xmlns="http://www.w3.org/2000/svg" viewBox="0 0 941.91 377.49">
  <defs>
    <style>
      .cls-1 {
        fill: #fff;
        stroke-width: 0px;
      }
    </style>
  </defs>
  <path class="cls-1" d="M131.75,115.62c-5.38-6.84-10.77-13.67-16.81-21.33-10.95,15.58-22.31,29.98-31.69,45.57-11.73,19.5-16.87,40.97-13.62,63.99,3.09,21.82,12.89,40.36,27.85,56.15,7.26,7.68,15.86,14.23,14.03,26.55-.17,1.12.32,2.32.25,3.47-.34,5.2,2.39,5.76,6.73,4.48.68-6.49,1.19-12.93,2.12-19.3.28-1.89,1.42-3.91,2.74-5.35,6.02-6.62,12.9-12.56,18.26-19.66,16.86-22.32,24.23-47.28,19.18-75.32-4.05-22.53-15.13-41.57-29.04-59.25ZM115.59,269.74c-4.17-2.17-5.06-5.53-4.84-9.94,1.61-30.82,3-61.64,5.2-92.52.67,14.53,1.32,29.05,2.02,43.58.8,16.73,1.53,33.47,2.53,50.19.26,4.29-1.39,6.9-4.91,8.69Z"/>
  <path class="cls-1" d="M311.35,164.14c-3.1-.11-4.35,1.16-5.42,3.8-7.03,17.37-14.2,34.69-21.34,52.02-3.96,9.61-7.96,19.21-12.25,29.55-1.19-2.72-2.02-4.52-2.77-6.35-10.32-25.17-20.6-50.35-30.98-75.5-.55-1.34-1.79-3.4-2.76-3.43-8.39-.27-16.8-.16-25.25-.16-.09,1.55-.25,2.39-.16,3.2.08.77.4,1.51.58,2.16,8.25.89,8.77,1.41,8.69,9.61-.24,25.6-.56,51.19-.8,76.79-.08,8.87-.12,8.99-9.13,10.45.07,1.49.15,3.02.22,4.46h25.47v-4.82c-5.73-.24-7.19-3.36-7.13-8.62.23-23.28.09-46.57.11-69.86,0-1.56.14-3.13.22-4.69,1.23.81,1.71,1.76,2.12,2.75,11.55,27.71,23.06,55.44,34.74,83.1.79,1.87,2.88,3.2,4.37,4.78,1.28-1.6,3.01-3,3.78-4.82,11.06-26.29,21.99-52.64,32.97-78.97.72-1.72,1.53-3.39,2.3-5.08,1.14,2.17,1.3,4.1,1.31,6.04.14,21.78.24,43.57.38,65.35.05,8.28.02,8.37-8.7,11.09,1.26,1.56,2.23,3.84,3.26,3.88,9.28.28,18.56.16,28.02.16v-5.15c-4.71.17-8.57-.44-8.59-6.08-.09-27.94-.18-55.88-.25-83.82-.01-3.83,1.94-5.82,5.75-6.07,1.1-.07,2.2-.27,3.28-.41v-5.31c-7.75,0-14.9.18-22.02-.08Z"/>
  <path class="cls-1" d="M897.98,236.04c-1.23-10.94-8.33-16.84-18.15-20.18-1.38-.47-2.74-.97-4.9-1.73,2.35-1.63,4-2.7,5.59-3.87,9.49-6.97,12.81-17.69,8.44-28.14-4.33-10.34-12.8-16.18-23.43-16.91-16.55-1.14-33.2-.74-49.8-.96-.25,0-.5.36-1.04.77.12,1.39.25,2.95.38,4.4,7.16,1.05,8.58,2.66,8.59,9.51.02,25.43.01,50.86,0,76.3,0,8.42-.91,9.51-9.59,11.09.08,1.49.17,3.03.25,4.41,17.85,0,35.16.5,52.42-.27,6.02-.26,12.32-2.84,17.76-5.74,11.32-6.03,14.87-16.43,13.48-28.68ZM838.37,177.52c.1-1.92,3.82-5,6.08-5.19,5.72-.5,11.65-.2,17.33.75,8.99,1.51,14.25,9.26,14.08,19.51-.16,10.14-5.43,16.87-14.57,18.51-1.95.35-3.94.67-5.92.7-5.48.1-10.95.04-17.28.04,0-11.85-.3-23.11.28-34.32ZM862.54,262.81c-5.97.21-11.96.01-17.94.06-4.03.03-6.53-2.01-6.59-5.88-.2-12.24-.07-24.48-.07-37.24,8.89,0,17.04-.24,25.16.05,12.24.43,20.7,9.16,20.75,20.95.04,11.72-9.46,21.66-21.31,22.06Z"/>
  <path class="cls-1" d="M597.92,195.13c-6.78-.31-13.54-.98-20.32-1.23-4.94-.19-9.99-.58-14.81.21-15.54,2.55-26.46,16.28-25.41,31.45.61,8.68,5.16,15.25,11.99,20.61-3.04,4.15-6.16,7.85-8.62,11.95-1.59,2.68-3.38,6.14-2.89,8.86.36,2.03,4.22,3.43,6.97,5.44-.35.26-1.22.76-1.9,1.44-10.88,10.83-8.77,26.02,4.62,33.4,14.37,7.92,40.5,5.34,52.94-5.33,7.7-6.61,11.33-15.03,8.41-24.9-2.7-9.09-10.19-13.55-19.21-14.21-11.58-.86-23.24-.69-34.87-.95-1.69-.04-3.39-.01-5.91-.01,2.6-3.52,4.59-5.97,6.31-8.6,1.54-2.34,3.09-2.46,5.82-1.71,10.64,2.92,20.77,1.28,30-4.84,12.53-8.32,16.57-22.84,9.98-36.27-1.57-3.2-3.97-5.98-6.22-9.29,5.22.53,10.2,1.03,15.46,1.56v-7.54c-4.41,0-8.38.15-12.34-.04ZM550.05,280.9c2.62-7.07,6.97-10.05,14.67-10.05,2.5-.01,4.99,0,7.48,0,3.33,0,6.66-.13,9.98.03,5.38.26,10.32,1.73,12.72,7.12,2.46,5.53,2.06,11.08-1.43,16.1-7.4,10.63-29.45,13.12-39.21,4.54-4.97-4.38-6.61-11.27-4.21-17.74ZM580.02,242.27c-7.34,3.79-14.46,3.12-21.09-1.77-7.51-5.54-10.02-17.2-6-27.23,3.23-8.08,11.6-12.65,21.08-11.5,9.95,1.21,16.52,9.81,16.47,21.56.02,8.24-2.82,14.98-10.46,18.94Z"/>
  <path class="cls-1" d="M759.67,165.12c-14.67-1.42-29.54-.68-44.33-.89-.26,0-.53.36-1,.69.07,1.32.15,2.77.24,4.48,7.73,1.02,9.17,2.61,9.18,10.1.04,25.27.03,50.53.01,75.79,0,8.04-1.19,9.45-9.38,11.02.08,1.46.16,2.98.24,4.53,14.04,0,27.5.2,40.96-.06,10.39-.21,19.9-3.67,28.21-9.9,16.01-11.99,21.04-28.68,20.15-47.86-1.17-25.21-19.18-45.48-44.28-47.9ZM775.78,253.75c-9.53,9.01-21.36,9.97-33.52,8.86-3.21-.29-4.47-3.4-4.45-6.82.1-12.62.04-25.24.04-37.85s-.02-25.24.01-37.85c.02-6.14,1.9-7.82,7.98-8.08,15.74-.68,28.76,3.93,37.07,18.26,11.08,19.11,7.73,49.43-7.13,63.48Z"/>
  <path class="cls-1" d="M514.38,257.18c-.03-13.63.09-27.26-.16-40.88-.2-10.9-6.38-18.81-16.44-21.84-12.6-3.8-25.74.12-34.13,10.25-.59.71-.74,1.77-1.09,2.67-.51-.33-1.01-.67-1.52-1-.65-2.53-1.43-5.04-1.92-7.6-.73-3.84-3.11-4.53-6.16-3.09-3.59,1.71-7.05,3.73-10.36,5.92-.94.62-1.16,2.32-1.77,3.64,8.17,1.95,8.25,2.05,8.26,10.24,0,13.63,0,27.26,0,40.89,0,7.77-.16,7.96-7.7,9.76v4.35h27.87v-4.58c-7.08-1.15-7.54-1.66-7.55-8.35-.02-9.81-.1-19.61.03-29.42.11-8.69,2.9-16.34,9.78-22.03,6.14-5.08,13.28-6.26,20.57-3.44,7.18,2.78,9.07,9.36,9.19,16.28.23,13.46.06,26.92.14,40.39.03,3.87-1.65,5.91-5.53,6.16-.76.05-1.52.26-2.18.38v4.67h28.1v-4.5c-7.28-1.5-7.4-1.66-7.42-8.85Z"/>
  <path class="cls-1" d="M662.38,193.11c-22.81.02-39.22,16.71-39.23,39.9-.02,23.05,16.56,39.77,39.38,39.72,22.28-.05,38.85-16.75,39.28-39.6.43-22.33-17.02-40.03-39.43-40.02ZM685.94,246.99c-3.4,10.74-12.15,17.18-22.96,17.49-10.79.31-19.83-5.67-23.82-16.31-3.81-10.16-3.76-20.56.06-30.69,4.29-11.36,13.59-16.79,25.92-15.76,10.98.91,19.41,8.97,21.93,21.19.7,3.4.89,6.89,1.42,11.17-.73,3.85-1.16,8.53-2.55,12.91Z"/>
  <path class="cls-1" d="M386.52,193.12c-22.78-.02-39.38,16.85-39.32,39.96.06,22.98,16.84,39.77,39.61,39.65,22.36-.12,39.08-17.3,38.88-39.95-.19-22.95-16.67-39.63-39.17-39.66ZM410.42,245.82c-3.58,12.09-13.54,19.37-25.12,18.65-12.11-.75-21.44-9.24-23.74-21.76-.6-3.25-.83-6.58-1.32-10.55.58-3.32.97-7.31,2-11.12,3.41-12.61,12.28-19.64,24.28-19.58,11.89.07,20.52,6.9,24.08,19.3,2.41,8.34,2.27,16.77-.18,25.06Z"/>
</svg>