<?xml version="1.0" encoding="UTF-8"?>
<svg id="Layer_1" data-name="Layer 1" xmlns="http://www.w3.org/2000/svg" viewBox="0 0 605.29 295.79">
  <defs>
    <style>
      .cls-1 {
        fill: #fff;
        stroke-width: 0px;
      }
    </style>
  </defs>
  <path class="cls-1" d="M187.04,86.29h88.61v7.04h-80.49v53.01h75.69v7.04h-75.69v58.2h81.41v7.04h-89.53V86.29ZM283.59,86.29h9.41l41.72,58.2,42.64-58.2,58-73.92-95.29,138.23,49.1,68.02h-9.78l-44.67-61.9-44.86,61.9h-9.6l49.47-68.02-46.15-64.31ZM392.69,93.33v-7.04h100.98v7.04h-46.52v125.29h-8.12v-125.29h-46.34ZM76.18,86.29h10.15l140.01,209.51-57.86-77.18-83.81-122.32-.37,122.32h-8.12V86.29ZM492.85,209.45c-1.66,0-2.9-1.28-2.9-2.95s1.24-2.95,2.9-2.95,2.9,1.29,2.9,2.95-1.22,2.95-2.9,2.95ZM500.83,201.7h4.35c.06,2.35,1.78,3.94,4.31,3.94,2.83,0,4.43-1.7,4.43-4.89v-20.18h4.43v20.2c0,5.74-3.32,9.04-8.81,9.04-5.16,0-8.69-3.21-8.69-8.11h0ZM524.12,201.44h4.39c.38,2.71,3.02,4.43,6.84,4.43,3.56,0,6.16-1.84,6.16-4.37,0-2.18-1.66-3.48-5.43-4.37l-3.67-.89c-5.16-1.21-7.51-3.7-7.51-7.89,0-5.08,4.15-8.47,10.37-8.47,5.79,0,10.02,3.38,10.27,8.19h-4.31c-.41-2.63-2.71-4.27-6.03-4.27-3.5,0-5.83,1.68-5.83,4.25,0,2.04,1.5,3.21,5.21,4.08l3.14.77c5.85,1.37,8.26,3.74,8.26,8.03,0,5.46-4.23,8.88-10.98,8.88-6.32,0-10.57-3.26-10.89-8.37h0Z"/>
</svg>