<?xml version="1.0" encoding="UTF-8"?>
<svg id="Layer_1" data-name="Layer 1" xmlns="http://www.w3.org/2000/svg" viewBox="0 0 1165.02 366.23">
  <defs>
    <style>
      .cls-1 {
        font-family: SalvaTest-Medium, 'Salva Test';
        font-size: 171.85px;
        font-weight: 500;
      }

      .cls-1, .cls-2 {
        fill: #fff;
      }

      .cls-2 {
        stroke-width: 0px;
      }
    </style>
  </defs>
  <text class="cls-1" transform="translate(310.58 273.3)"><tspan x="0" y="0">Photoshop</tspan></text>
  <g>
    <path class="cls-2" d="M285.03,148.44c-.11-23.24-17.15-39.71-40.39-39.72-46.87-.02-93.75-.03-140.63,0-23.23,0-40.03,16.69-40.07,39.92-.07,45.04-.08,90.06,0,135.09.04,23.26,16.78,39.81,40.09,39.85,23.32.03,46.63,0,69.94,0s47.13.02,70.69,0c23.33-.03,40.27-16.4,40.37-39.68.2-45.16.21-90.31,0-135.46ZM175.67,218.07c-6.01,7.17-14.26,10.3-23.33,11.2-6.13.61-12.3.73-18.85,1.1v29.78h-19.65v-95.85c3.14-.17,6.13-.5,9.12-.48,10.36.07,20.79-.5,31.05.59,12.26,1.3,22.33,7.27,26.8,19.42,4.43,12.1,3.47,23.94-5.15,34.23ZM246.55,241c-.61,8.15-4.65,14.29-11.91,17.65-12.9,5.96-26.08,4.81-39.14.21-.87-.3-2.01-1.49-2.04-2.29-.18-5.39-.09-10.78-.09-15.69,6.69,1.67,13.05,3.53,19.53,4.78,2.89.56,6.15.38,9-.37,1.86-.49,4.21-2.35,4.63-4.02.33-1.35-1.54-3.88-3.08-4.91-2.58-1.74-5.71-2.63-8.55-4.01-3.97-1.92-8.13-3.59-11.77-6.03-13.97-9.33-12.6-28.92,2.42-36.56,7.41-3.76,15.33-4.04,23.34-3.27,3.74.37,7.49,1.13,11.13,2.1,1.11.29,2.59,1.88,2.65,2.95.28,4.89.12,9.8.12,15.34-1.74-.48-3.02-.7-4.22-1.19-6.46-2.59-13.17-3.45-20.08-2.96-2.67.18-5.63.92-5.66,3.86-.02,1.87,1.8,4.26,3.47,5.52,2.27,1.7,5.2,2.52,7.82,3.74,4.01,1.87,8.1,3.57,11.95,5.7,7.58,4.2,11.15,10.72,10.49,19.43Z"/>
    <path class="cls-2" d="M153.92,183.13c-6.42-1.43-13.13-1.58-20.39-2.36,0,10.76-.03,20.44.09,30.12,0,.63,1.18,1.74,1.85,1.78,6.72.36,13.48.45,19.74-2.5,6.3-2.96,8.4-8.28,7.92-14.97-.42-5.81-3.42-10.79-9.2-12.07Z"/>
  </g>
</svg>