<?xml version="1.0" encoding="UTF-8"?>
<svg id="Layer_1" data-name="Layer 1" xmlns="http://www.w3.org/2000/svg" viewBox="0 0 768 377.49">
  <defs>
    <style>
      .cls-1 {
        fill: #fff;
        stroke-width: 0px;
      }
    </style>
  </defs>
  <path class="cls-1" d="M130.78,212.11c-.57-10.79,7.43-21.37,20.7-22.31,11.05-.77,22.56,7.36,23.07,21.04.42,11.27-6.72,21.6-20.67,22.46-12.48.76-22.37-7.41-23.1-21.2Z"/>
  <path class="cls-1" d="M273.45,208.84c-1.35-8.32-6.45-14.1-12.61-19.1-10.35-8.39-22.37-13.53-35.04-17.27-2.02-.59-2.8-1.31-2.34-3.58,2.34-11.55,4.31-23.15,2.85-35.02-.83-6.76-2.02-13.41-5.74-19.28-3.57-5.62-8.45-9.34-15.31-9.93-11.64-1-21.65,3.43-31.2,9.4-7.12,4.45-13.61,9.73-19.77,15.4-1.23,1.13-2.02,1.21-3.22-.03-2.71-2.81-5.74-5.28-8.83-7.66-9.27-7.13-19.04-13.24-30.59-16.14-11.37-2.86-20.92-.21-26.64,8.2-4.58,6.73-5.95,14.6-6.41,22.5-.63,10.9.72,21.68,3.51,32.24.57,2.16-.1,3.11-2.07,3.62-6.69,1.72-13.06,4.34-19.27,7.28-8.71,4.13-16.92,9.1-23.01,16.79-5.94,7.48-8.06,16.26-3.22,25.71,3.71,7.24,9.54,12.29,16.11,16.59,9.08,5.95,18.94,10.34,29.36,13.41,2.05.6,2.58,1.3,2,3.49-2.28,8.54-3.51,17.24-3.56,28.5-.19,4.43.62,11.14,2.73,17.65,2.88,8.89,8.18,15.47,17.9,17.18,6.58,1.16,12.97-.24,19.14-2.47,12.46-4.5,22.9-12.25,32.54-21.11,1.91-1.75,2.94-1.72,4.69-.1,6.96,6.47,14.37,12.35,22.75,16.94,7.16,3.92,14.6,6.84,22.92,7.08,8.92.26,15.6-3.33,20.11-11.04,4.31-7.34,5.51-15.53,6.03-23.76.62-9.78-.95-19.45-3.22-28.94-.64-2.7.1-3.64,2.48-4.28,6.75-1.82,13.17-4.55,19.4-7.69,8.63-4.36,16.61-9.67,22.46-17.53,3.71-4.99,6.17-10.45,5.1-17.06ZM161.65,137.03c8.86-8.46,18.57-15.67,30.04-20.24,3.57-1.42,7.3-2.07,11.17-2,4.55.1,7.47,2.57,9.39,6.35,3.45,6.8,4.37,14.12,4,21.36.3,8.43-1.24,16.34-2.89,24.25-.35,1.65-.98,2.15-2.75,1.74-9.21-2.15-18.57-3.48-27.98-4.36-1.45-.13-2.36-.69-3.17-1.86-5.45-7.86-11.51-15.25-17.93-22.34-1.12-1.23-.97-1.86.12-2.9ZM103.2,224.3c4.52,8.57,9.2,16.32,14.17,24.48-7.32-.92-14.17-1.64-20.86-3.43-.63-.17-1-.29-.76-1.07,2.06-6.63,4.31-13.17,7.45-19.99ZM97.07,183.6c-1.59-4.61-1.46-4.77,3.37-5.77,5.42-1.12,10.86-2.13,16.78-2.72-4.98,7.92-9.52,15.71-14,24.08-2.74-5.29-4.39-10.47-6.16-15.58ZM109.4,213.25c-.61-1.26-.43-2.18.16-3.34,5.89-11.71,12.55-22.97,19.55-34.05,1.95-3.08,4.83-2.47,7.36-2.63,5.39-.34,10.81-.11,16.22-.11,6.69-.03,13.4-.37,20.09.47,1.35.17,2.17.57,2.93,1.68,7.59,11.19,14.26,22.91,20.27,35,.51,1.02.49,1.85,0,2.87-5.93,12.33-12.87,24.07-20.39,35.48-1.03,1.55-2.67,1.5-4.21,1.61-9.85.71-19.74.55-29.61.48-3.15-.02-6.28-.7-9.46-.45-.94.07-1.52-.33-2.05-1.11-7.75-11.5-14.78-23.42-20.86-35.9ZM189.26,246.76c4.7-7.46,8.96-15.17,13.3-23.24,2.45,6.47,4.73,12.65,7.14,18.77.73,1.87.73,2.61-1.62,3.08-5.71,1.16-11.46,2.07-17.21,2.99-.66.11-1.36.36-1.86-.12-.5-.47-.04-1.04.25-1.5ZM202.4,199.5c-4.75-8.3-9.03-16.44-14.41-24.46,7.33,1,14.12,2.24,20.88,3.62,1.15.23.9.77.66,1.59-1.91,6.4-4.52,12.54-7.13,19.26ZM151.55,147.17c.72-.82,1.22-1.09,2.21-.11,4.76,4.73,8.58,10.22,13.48,16.02-9.89-.89-18.95-.91-28.43-.06,1.94-3.55,4.56-6.07,6.68-8.92,1.83-2.45,4.03-4.62,6.05-6.93ZM92.74,121.43c2.52-5.03,6.59-7.21,12.84-6.27,14.06,2.11,24.82,10.31,35.23,19.12,1.54,1.31,4.15,2.28,4.24,4.18.08,1.86-2.47,3.02-3.8,4.53-5.27,5.99-10.11,12.32-14.88,18.71-.96,1.29-1.88,2.31-3.74,2.45-9.15.7-18.21,2.12-27.17,4.11-2.38.53-3.14-.17-3.56-2.29-1.6-8.19-3.04-16.4-2.87-24.79-.11-6.83.58-13.49,3.71-19.75ZM86.06,240.29c-.66,2.09-1.41,2.29-3.32,1.68-12.71-4.04-24.7-9.37-34.45-18.81-.79-.77-1.41-1.71-2.14-2.56-6.6-7.74-4.75-13.08,1.38-19.55,6.37-6.72,14.41-11.05,22.89-14.52,4.11-1.69,8.4-2.95,12.62-4.4.52-.18,1.08-.28,1.61-.42,1-.27.96.54,1.15,1.12,3.03,9.29,6.44,18.43,10.6,27.27.55,1.17.59,2.18,0,3.43-4.05,8.68-7.46,17.63-10.35,26.76ZM142.94,288.09c-5.34,5.1-11.15,9.56-17.52,13.22-6.21,3.56-12.6,6.84-20,7.28-9.58.57-11.84-3.29-14.57-11.05-1.77-5.02-2.05-10.35-1.81-15.37-.27-8.53,1.33-16.54,2.84-24.56.34-1.81.9-2.32,2.97-1.87,9.24,2.01,18.62,3.19,28.04,4,1.4.12,2.55.63,3.33,1.76,5.4,7.79,11.34,15.15,17.83,22.05,2.33,2.47.37,3.12-1.12,4.55ZM153.96,277.01c-.66.68-1.24.74-1.87.02-4.45-5.07-8.85-10.2-13.4-16.21h28.4c-4.19,5.53-8.27,11.16-13.13,16.19ZM212.38,302.45c-2.42,4.48-6.24,6.51-11.4,6.32-6.97-.26-12.98-3.2-18.8-6.49-7.29-4.12-13.84-9.31-19.94-15.06-1.56-1.47-1.4-2.49-.06-3.86,6.31-6.46,11.64-13.75,16.76-21.12,1.98-2.85,4.46-2.64,6.92-2.96,8.54-1.11,17.11-1.98,25.48-4.12,1.94-.5,2.24.3,2.57,1.74,1.83,7.89,2.77,15.88,2.94,24.18-.22,7.24-.82,14.59-4.46,21.35ZM255.41,224.66c-9.38,8.11-20.58,12.8-32.17,16.75-2.02.68-2.86.5-3.56-1.74-2.81-9.07-6.47-17.82-10.6-26.36-.5-1.03-.62-1.79-.15-2.85,3.96-8.9,7.76-17.87,10.63-27.2.43-1.39,1.26-1.49,2.33-1.17,12.61,3.86,24.68,8.85,34.67,17.76,3.4,3.04,6.22,6.65,6.8,11.5-.57,5.7-3.89,9.8-7.95,13.31Z"/>
  <path class="cls-1" d="M388.26,208.56c12.16-2.51,18.38-6.23,23.47-14.77,4.36-7.29,5.17-15.33,3.88-23.66-2.53-16.39-15.31-25.96-30.82-26.53-14.54-.54-29.11-.05-43.67-.18-2.63-.02-3.45.55-3.44,3.34.12,22.47.07,44.95.07,67.42,0,11.93.04,23.88-.04,35.81-.01,2.06.53,2.83,2.66,2.69,2.79-.18,5.61-.19,8.39,0,2.35.16,2.99-.66,2.97-2.97-.11-12.5,0-25-.09-37.49-.02-2.11.44-2.98,2.75-2.86,3.91.2,7.84.06,11.76.06,6.95,0,6.9.03,10.63,5.93,7.56,11.94,15.17,23.84,22.78,35.74.44.68.88,1.51,1.88,1.51,5.15.01,10.29,0,15.93,0-9.91-15-19.47-29.47-29.11-44.03ZM354,197.24c-1.88.02-2.38-.64-2.35-2.43.09-6.05.03-12.11.03-18.17s.08-11.74-.04-17.61c-.04-2.08.39-2.94,2.74-2.9,9.41.14,18.83,0,28.24.08,9.96.09,18.5,8.76,18.98,18.71.61,12.55-7.97,22.28-21.86,22.28-8.58,0-17.16-.04-25.74.04Z"/>
  <path class="cls-1" d="M504.58,214.4c-.08-3.54-.36-7.03-1.04-10.5-3.12-15.95-11.63-27.04-27.89-31.39-14.26-3.81-31.11,2.03-39.93,13.98-8.14,11.03-9.97,23.39-7.52,36.5,2.32,12.44,9.04,21.86,20.5,27.55,9.17,4.55,18.93,5.27,28.83,3.35,7.48-1.46,14.35-4.5,20.11-9.69,1.31-1.18,1.86-2.15.4-3.68-1.33-1.41-2.42-3.06-3.53-4.66-.99-1.42-2.1-1.47-3.18-.29-1.66,1.82-3.69,3.14-5.82,4.25-8.22,4.33-16.94,5.85-25.87,2.95-10.83-3.52-16.71-11.55-18.79-22.56-.41-2.18.25-2.94,2.57-2.9,9.7.12,19.41.04,29.11.04s19.41-.07,29.11.06c2.4.03,2.99-.76,2.94-3.02ZM489.37,208.26c-7.75-.1-15.49-.04-23.24-.04s-15.3-.07-22.96.04c-2.05.03-2.74-.72-2.39-2.59,1.88-10.34,6.5-18.85,17.12-22.13,13.83-4.28,27.7,1.11,32.71,16.69.57,1.76.76,3.63,1.14,5.45.41,1.98-.4,2.6-2.38,2.57Z"/>
  <path class="cls-1" d="M585.74,195.37c-.03-4.07-1.14-8.04-3.41-11.62-3.82-6-9.31-9.29-16.14-10.89-13.91-3.26-26.68-1.17-38.22,7.53-5.1,3.85-5.17,3.91-1.64,9.14q2.99,4.44,6.56.73c.51-.53,1.08-1.01,1.66-1.45,6.8-5.15,14.58-7.12,22.89-6.03,5.27.7,10.22,2.68,13.3,7.69,4.19,6.81,2.15,14.21,2.77,22.09-2.04-1.74-3.4-3.11-4.96-4.2-8.76-6.19-18.64-7.26-28.77-5.33-7.46,1.42-13.49,5.63-17.36,12.44-3.09,5.44-3.25,11.39-2.63,17.37.57,5.56,2.98,10.5,7.12,14.12,10.68,9.32,22.75,9.76,35.48,4.79,3.96-1.55,7.16-4.25,11.02-7.17,0,2.45.06,4.29-.02,6.12-.06,1.48.57,1.97,1.99,1.93,2.61-.07,5.24-.16,7.83.03,2.2.16,2.62-.73,2.62-2.74-.07-18.19.05-36.38-.11-54.56ZM564.12,242.93c-6.43,2.86-13.26,3.54-20.1,1.26-7.95-2.64-12.16-9.37-11.42-17.93.59-6.81,6.66-12.93,14.1-14.15,8.77-1.44,16.78.06,23.69,6.05,2.01,1.74,3.39,3.57,3.06,6.39-.16,1.38-.03,2.79-.03,4.19,1.47,7.72-3.37,11.55-9.31,14.19Z"/>
  <path class="cls-1" d="M645.39,254.83c-17.88.18-32.51-10.15-37.78-27.4-4.38-14.33-2.76-28.21,5.93-40.64,5.85-8.37,14.34-13.14,24.41-14.8,8.82-1.45,17.36-.51,25.43,3.67,4.08,2.11,7.02,5.48,10.19,8.61.75.74.76,1.43-.04,2.14-2.15,1.91-4.31,3.81-6.46,5.73-1.09.97-1.71.69-2.6-.49-6.81-8.96-20.06-11.06-30.02-6.36-10.11,4.77-14.27,13.28-15.56,23.72-1.11,8.94.77,17.23,6.16,24.45,8.32,11.15,26.58,14.1,37.43,3.18,3.47-3.49,3.49-3.48,7.08-.42,5.14,4.37,5.06,6.18-.44,10.45-7.35,5.71-14.18,8.06-23.73,8.15Z"/>
  <path class="cls-1" d="M693.38,212.45c0-8.39-.06-16.78.04-25.17.02-1.97-.56-2.62-2.52-2.51-2.7.15-5.41-.03-8.11.06-1.6.06-2.42-.3-2.32-2.13.14-2.51.11-5.04,0-7.55-.07-1.64.6-2.09,2.13-2.04,2.7.09,5.42-.1,8.11.06,2.06.12,2.77-.48,2.71-2.63-.15-5.31.08-10.63-.11-15.94-.09-2.42.74-3.06,3.01-2.88,2.32.18,4.68.23,6.99,0,2.62-.28,3.09.81,3.02,3.16-.16,5.21.05,10.44-.1,15.66-.06,2.15.67,2.73,2.72,2.64,3.63-.15,7.28.05,10.91-.08,2-.07,2.7.72,2.52,2.62-.27,2.94,1.26,6.69-.65,8.6-1.65,1.66-5.33.33-8.11.48-2.31.13-5.3-.97-6.77.42-1.62,1.53-.54,4.59-.55,6.97-.06,13.8-.02,27.59-.03,41.39,0,3.73.86,7.02,4.38,9,3.38,1.91,6.61.83,9.45-1.06,2.29-1.52,3.02-.8,3.55,1.4.22.9.63,1.74.98,2.61,1.89,4.67,1.9,4.83-2.78,7-6.58,3.05-13.32,3.3-19.95.3-3.91-1.77-6.39-4.99-7.43-9.22-.82-3.35-1.2-6.73-1.14-10.2.12-6.99.04-13.98.03-20.97Z"/>
  <path class="cls-1" d="M153.88,233.3c-12.48.76-22.37-7.41-23.1-21.2-.57-10.79,7.43-21.37,20.7-22.31,11.05-.77,22.56,7.36,23.07,21.04.42,11.27-6.72,21.6-20.67,22.46Z"/>
  <path class="cls-1" d="M153.88,233.3c-12.48.76-22.37-7.41-23.1-21.2-.57-10.79,7.43-21.37,20.7-22.31,11.05-.77,22.56,7.36,23.07,21.04.42,11.27-6.72,21.6-20.67,22.46Z"/>
</svg>