<?xml version="1.0" encoding="UTF-8"?>
<svg id="Layer_1" data-name="Layer 1" xmlns="http://www.w3.org/2000/svg" viewBox="0 0 709.36 223.01">
  <defs>
    <style>
      .cls-1 {
        fill: #fff;
        stroke-width: 0px;
      }
    </style>
  </defs>
  <path class="cls-1" d="M166.26,48.57c-36.92-.01-73.84-.01-110.76,0-6.62,0-8.31,1.64-8.32,8.15-.03,18.38,0,36.76,0,55.14s-.01,37.1,0,55.64c.01,6.64,1.64,8.29,8.18,8.29,37.08.02,74.17.02,111.25,0,6.26,0,8.29-2,8.3-8.39.03-36.77.03-73.53,0-110.29,0-6.61-2.02-8.54-8.65-8.54ZM116.11,105.33q.15,7.59-7.27,7.59-11.25,0-11.25,11.03c0,11.92-.09,23.85.07,35.77.04,3.15-.74,4.27-4.12,4.27-10.34.01-10.34.16-10.34-9.88,0-5.3,0-10.6,0-15.9,0-7.28-.08-14.57.05-21.86.04-2.55-.78-3.62-3.41-3.46-2.65.16-5.34.21-7.98-.02-2.18-.2-5.46,1.37-6.32-1.12-.97-2.82-.45-6.2-.27-9.32.1-1.62,1.77-1.19,2.83-1.19,14.97-.03,29.94.02,44.91-.06,2.39-.02,3.39.81,3.11,3.16-.04.32-.01.66,0,.99ZM163.73,148.99c-1.32,7.94-6.29,13.04-14.65,14.84-7.92,1.71-15.77,1.41-23.63-.68-3.27-.86-4.73-2.35-4.34-5.85.32-2.89.06-5.85.06-9.44,4.69,2.61,8.8,5.1,13.67,5.56.83.07,1.64.29,2.46.35,5.78.38,10.76-1.69,11.33-5.12.93-5.61-3.72-7.19-7.47-9.11-4.26-2.2-8.91-3.6-12.85-6.46-11.4-8.26-9.76-24.67,3.19-30.24,8.73-3.76,17.81-3.23,26.88-1.15,1.74.4,2.94,1.14,2.82,3.33-.17,3.25-.04,6.52-.04,10.23-4.03-1.45-7.43-3.21-11.24-3.56-1.65-.16-3.35-.51-4.95-.27-3.56.54-7.74.7-8.77,5.12-1.08,4.61,2.74,6.34,5.94,8.04,4.09,2.17,8.48,3.81,12.46,6.14,7.34,4.29,10.39,10.74,9.13,18.27Z"/>
  <path class="cls-1" d="M347.29,99.91c-10.23-1.78-18.14,1.86-24.72,10.73-.73-9.66-.75-9.36-7.62-9.75-4.65-.26-6.19.83-6.13,5.84.3,23.84.13,47.69.13,71.54,0,8.15.01,7.9,8.21,8.19,4.33.16,5.26-1.4,5.15-5.38-.27-9.69-.09-19.39-.09-29.52.9.54,1.35.69,1.65,1,12.06,12.56,30.67,10.09,38.49-5.44,5.48-10.88,5.77-22.34,1.42-33.69-2.86-7.44-8.35-12.11-16.49-13.52ZM350.94,139.77c-2.9,8.1-8.76,11.57-17.01,10.31-6.62-1.02-11.36-6.83-11.84-14.59-.1-1.48-.02-2.98-.02-4.47,0-10.73,3.71-17.44,10.92-19.76,8.41-2.71,16.33,1.46,18.71,9.96,1.75,6.24,1.42,12.48-.76,18.55Z"/>
  <path class="cls-1" d="M294.83,100.87c-6.02-.61-8.62,1.56-10.36,7.32-3.87,12.78-8.62,25.31-13.3,38.78-3.94-11.95-7.6-23.05-11.26-34.16q-4.1-12.41-17.28-11.74c-.15.01-.3.13-1.09.46.64,1.8,1.2,3.51,1.86,5.18,5.97,14.87,11.47,29.96,18.14,44.51,3.22,7.03,1.84,12.62-1.5,18.54-2.39,4.24-6.09,7.03-10.99,6.15-5.51-.97-5.69,1.85-5.27,5.72.23,2.09-.98,4.82,2.83,5.14,7.48.62,14.18-.82,19.63-6.38,3.9-3.98,6.62-8.66,8.64-13.78,7.92-20.14,15.83-40.29,23.74-60.43,2.03-5.17,1.98-4.73-3.79-5.31Z"/>
  <path class="cls-1" d="M409.29,100.38c-12.17-3.04-23.82,1.25-30.56,11.34-5.82,8.72-6.2,18.37-4.14,28.16,2.66,12.68,11.05,19.85,23.82,20.86,5.85.47,11.57-.48,17.24-1.91,5.1-1.29,7.55-3.97,6.8-9.54-.38-2.89-.61-4.08-3.61-2.17-3.42,2.17-7.36,3-11.33,3.5-10.31,1.32-18.42-4.15-20.25-13.29-.54-2.69.06-3.6,2.82-3.54,5.48.12,10.96.04,16.45.03h10.97q9.97,0,9.17-9.9c-.97-12.1-7.62-21.11-17.38-23.54ZM411.79,124.2c-3.64-.08-7.28-.02-10.93-.02s-6.95-.08-10.42.03c-2.16.07-2.96-.59-2.57-2.86,1.14-6.75,7.5-12.24,14.27-12.16,6.71.09,11.13,4.6,12.08,12,.27,2.17-.15,3.07-2.43,3.01Z"/>
  <path class="cls-1" d="M245.06,89.13c8.01-.31,6.72,1.22,7.13-7.21.18-3.8-1.05-4.66-4.72-4.62-16.11.21-32.22.09-48.34.09-8.31,0-8.18,0-8.07,8.09.03,2.82.85,3.77,3.69,3.66,5.14-.19,10.31.16,15.44-.12,3.62-.2,4.94.75,4.84,4.62-.29,10.09-.1,20.18-.1,30.27v26.8c0,8.97.01,8.74,8.93,8.91,4.02.08,4.56-1.52,4.53-4.95-.15-16.38-.13-32.75-.03-49.13.03-5.25-2.25-12.14.9-15.34,3.4-3.45,10.38-.86,15.8-1.07Z"/>
  <path class="cls-1" d="M622.32,100.31c-11.1-2.57-20.33.62-27.02,10.14-.34.48-.65,1.22-1.76.73,0-1.85.14-3.82-.05-5.75-.16-1.69,1.19-4.22-2.28-4.4-3.77-.2-2.77,2.49-2.77,4.39-.04,25.5-.05,50.99,0,76.49,0,1.9-1.02,4.63,2.74,4.45,3.41-.17,2.3-2.69,2.31-4.4.09-10.4.05-20.8.05-32.41,1.25,1.36,1.71,1.8,2.11,2.3,9.82,12.3,27.8,12,37.19-.65,7.02-9.46,7.8-20.29,6.05-31.29-1.52-9.56-6.36-17.22-16.57-19.6ZM631.25,144.86c-4.16,8-10.88,11.79-19.41,10.99-7.92-.74-14.82-6.44-16.92-14.67-1.85-7.29-1.88-14.78.37-22.02,3.24-10.43,12.39-16.17,22.95-14.77,8.91,1.17,15.34,8.79,16.21,19.22.14,1.65.22,3.3.32,4.94-.04,5.69-.86,11.2-3.52,16.31Z"/>
  <path class="cls-1" d="M469,123.43c-7.15-5.08-14.86-9.38-22.03-14.44-6.21-4.39-8.16-10.89-6.03-17.45,1.8-5.55,7.73-9.64,14.68-10.17,6.06-.46,11.91.5,17.88,2.71.51-5.72.48-5.61-4.33-6.84-5.08-1.31-10.24-1.34-15.34-.75-12.46,1.43-20.41,11.21-19.27,23.27.56,5.86,3.57,10.28,8.31,13.49,7.55,5.1,15.35,9.84,22.83,15.04,5.34,3.71,6.73,9.29,5.56,15.42-1.16,6.01-5.29,9.46-11.03,10.86-4.01.97-8.09,1.37-12.33.76-4.95-.7-9.25-3.07-13.91-4.75-.41,6.3-.45,6.44,5.01,7.96,3.5.98,7.1,1.79,10.71,2.16,14.26,1.45,25.02-5.4,27.35-17.32,1.62-8.33-1.28-15.14-8.06-19.95Z"/>
  <path class="cls-1" d="M524.57,101.11c-15.78-5.7-32.86,2.31-38.28,18.13-1.7,4.96-1.94,10.02-1.72,15.16.87,20.28,20.66,32.38,39.28,24.02,3.73-1.67,3.82-1.91,2.5-6.22-13.85,5.99-23.76,4.8-30.83-3.7-7.08-8.51-7.58-24.18-1.09-34.07,6.68-10.17,15.52-12.07,32.8-7,.27-2.61,1.07-4.98-2.66-6.32Z"/>
  <path class="cls-1" d="M657.43,142.86c-.02-10.93.09-21.87-.07-32.79-.04-2.99.73-4.24,3.89-3.98,2.97.25,5.98.01,8.97.07,1.75.04,2.83-.38,2.86-2.44.02-2.04-.98-2.53-2.77-2.49-3.16.07-6.33-.11-9.48.06-2.55.13-3.61-.69-3.45-3.35.2-3.31.14-6.63-.01-9.94-.05-1.07.95-3.13-1.16-3.05-1.59.07-3.88.28-3.89,2.92,0,1.33,0,2.65-.03,3.97-.03,2.82.86,6.17-.37,8.3-1.46,2.55-5.15.77-7.84,1.06-1.58.18-2.52.54-2.43,2.31.07,1.48.4,2.63,2.21,2.61.83-.01,1.69.16,2.49,0,5.35-1.08,6.18,1.53,6.05,6.24-.32,11.59-.27,23.19-.03,34.78.21,10.56,7.74,15.89,17.41,12.9,3.13-.96,3.92-2.57,2.84-5.46-11.83,3.09-15.16.52-15.19-11.72Z"/>
  <path class="cls-1" d="M560.68,100.21c-2.04-.82-4.19-1.01-6.37-.67-7.32,1.17-11.52,5.91-14.79,12.25,0-2.15.19-4.32-.06-6.44-.21-1.79,1.47-4.67-2.35-4.8-3.75-.12-2.66,2.67-2.67,4.55-.06,16.71-.05,33.43,0,50.14,0,1.76-.95,4.21,2.44,4.3,3.37.08,2.61-2.27,2.62-4.1.05-8.94-.06-17.88.08-26.81.09-6.2,1.3-12.21,4.85-17.44,3.53-5.18,8.16-8.22,14.81-6.39,1.09.3,2.4,1.11,2.71-.75.24-1.4.58-3.09-1.27-3.84Z"/>
  <path class="cls-1" d="M572.77,100.96c-2.6.07-2.35,1.73-2.35,3.38-.01,17.21,0,34.41-.02,51.61,0,1.89-.17,3.64,2.68,3.6,2.77-.04,2.71-1.74,2.7-3.66-.02-8.44,0-16.87,0-25.31,0-8.76-.04-17.53.03-26.29.01-2.18-.48-3.39-3.03-3.33Z"/>
  <path class="cls-1" d="M573.63,77.51c-2.67-.09-4.36,1.44-4.42,4.21-.06,2.69,1.35,4.45,4.09,4.55,2.74.11,4.14-1.61,4.48-4.13-.03-2.86-1.48-4.53-4.15-4.63Z"/>
</svg>