<?xml version="1.0" encoding="UTF-8"?>
<svg id="Calque_1" data-name="Calque 1" xmlns="http://www.w3.org/2000/svg" viewBox="0 0 585 88">
  <defs>
    <style>
      .cls-1 {
        font-family: PNANoeva-Bold, 'PNA Noeva';
        font-size: 84.42px;
        font-weight: 700;
      }

      .cls-1, .cls-2, .cls-3 {
        fill: #fff;
      }

      .cls-2 {
        font-family: NeueMontreal-Regular, 'Neue Montreal';
        font-size: 79px;
        opacity: .85;
      }

      .cls-4 {
        fill: #f95302;
      }

      .cls-4, .cls-3 {
        stroke-width: 0px;
      }

      .cls-5 {
        opacity: .85;
      }
    </style>
  </defs>
  <g>
    <path class="cls-4" d="M44.26,12.49c4.03.27,8.06,2.1,10.5,6.38,6.63,11.66,13.25,23.33,19.64,35.13,3.43,6.33.87,14.15-5.27,17.54-6.6,3.63-14.59,1.66-18.34-4.88-6.57-11.45-13.05-22.96-19.28-34.6-4.88-9.1,1.74-19.71,12.77-19.57Z"/>
    <path class="cls-4" d="M83.72,13.25c4.03.27,8.06,2.1,10.5,6.38,6.63,11.66,13.25,23.33,19.64,35.13,3.43,6.33.87,14.15-5.27,17.54-6.6,3.63-14.59,1.66-18.34-4.88-6.57-11.45-13.05-22.96-19.28-34.6-4.88-9.1,1.74-19.71,12.77-19.57Z"/>
    <path class="cls-4" d="M10.19,58.55c.18-7.46,6.13-13.13,13.61-12.98,7.57.15,13.33,6.24,13.12,13.85-.21,7.35-6.36,13.05-13.82,12.79-7.52-.25-13.09-6.15-12.91-13.66Z"/>
    <path class="cls-4" d="M106.89,26.93c.18-7.46,6.13-13.13,13.61-12.98,7.57.15,13.33,6.24,13.12,13.85-.21,7.35-6.36,13.05-13.82,12.79-7.52-.25-13.09-6.15-12.91-13.66Z"/>
  </g>
  <g>
    <path class="cls-3" d="M43.52,12.5c4.03.27,8.06,2.1,10.5,6.38,6.63,11.66,13.25,23.33,19.64,35.13,3.43,6.33.87,14.15-5.27,17.54-6.6,3.63-14.59,1.66-18.34-4.88-6.57-11.45-13.05-22.96-19.28-34.6-4.88-9.1,1.74-19.71,12.77-19.57Z"/>
    <path class="cls-3" d="M82.96,13.34c4.03.27,8.06,2.1,10.5,6.38,6.63,11.66,13.25,23.33,19.64,35.13,3.43,6.33.87,14.15-5.27,17.54-6.6,3.63-14.59,1.66-18.34-4.88-6.57-11.45-13.05-22.96-19.28-34.6-4.88-9.1,1.74-19.71,12.77-19.57Z"/>
    <path class="cls-3" d="M9.45,58.56c.18-7.46,6.13-13.13,13.61-12.98,7.57.15,13.33,6.24,13.12,13.85-.21,7.35-6.36,13.05-13.82,12.79-7.52-.25-13.09-6.15-12.91-13.66Z"/>
    <path class="cls-3" d="M106.15,26.94c.18-7.46,6.13-13.13,13.61-12.98,7.57.15,13.33,6.24,13.12,13.85-.21,7.35-6.36,13.05-13.82,12.79-7.52-.25-13.09-6.15-12.91-13.66Z"/>
  </g>
  <g class="cls-5">
    <g>
      <path class="cls-4" d="M574.07,24.59c-3.27,0-5.93-2.66-5.93-5.93s2.66-5.93,5.93-5.93,5.93,2.66,5.93,5.93-2.66,5.93-5.93,5.93ZM574.07,13.53c-2.83,0-5.13,2.3-5.13,5.13s2.3,5.13,5.13,5.13,5.13-2.3,5.13-5.13-2.3-5.13-5.13-5.13Z"/>
      <path class="cls-4" d="M576.11,21.68l-1.39-1.98c-.17.01-.31.02-.41.02h-1.59v1.96h-.92v-6.45h2.52c.84,0,1.49.2,1.97.6.48.4.72.95.72,1.65,0,.5-.12.92-.37,1.27s-.6.61-1.05.76l1.53,2.16h-1ZM575.63,18.56c.31-.25.46-.61.46-1.08s-.15-.82-.46-1.07c-.31-.25-.75-.37-1.34-.37h-1.57v2.9h1.57c.58,0,1.03-.13,1.34-.38Z"/>
    </g>
  </g>
  <g>
    <path class="cls-3" d="M573.71,24.59c-3.27,0-5.93-2.66-5.93-5.93s2.66-5.93,5.93-5.93,5.93,2.66,5.93,5.93-2.66,5.93-5.93,5.93ZM573.71,13.53c-2.83,0-5.13,2.3-5.13,5.13s2.3,5.13,5.13,5.13,5.13-2.3,5.13-5.13-2.3-5.13-5.13-5.13Z"/>
    <path class="cls-3" d="M575.75,21.68l-1.39-1.98c-.17.01-.31.02-.41.02h-1.59v1.96h-.92v-6.45h2.52c.84,0,1.49.2,1.97.6.48.4.72.95.72,1.65,0,.5-.12.92-.37,1.27s-.6.61-1.05.76l1.53,2.16h-1ZM575.26,18.56c.31-.25.46-.61.46-1.08s-.15-.82-.46-1.07c-.31-.25-.75-.37-1.34-.37h-1.57v2.9h1.57c.58,0,1.03-.13,1.34-.38Z"/>
  </g>
  <text class="cls-1" transform="translate(140.11 73.88)"><tspan x="0" y="0">MEGA</tspan></text>
  <text class="cls-2" transform="translate(357.59 73.49)"><tspan x="0" y="0">SOFT</tspan></text>
</svg>