<?xml version="1.0" encoding="UTF-8"?>
<svg id="Calque_1" data-name="Calque 1" xmlns="http://www.w3.org/2000/svg" viewBox="0 0 590 73.5">
  <defs>
    <style>
      .cls-1 {
        font-family: NeueMontreal-Regular, 'Neue Montreal';
        font-size: 77.06px;
        opacity: .85;
      }

      .cls-2 {
        fill: #f95302;
      }

      .cls-2, .cls-3 {
        stroke-width: 0px;
      }

      .cls-4 {
        opacity: .85;
      }

      .cls-5, .cls-3 {
        fill: #fff;
      }

      .cls-6 {
        font-family: PNANoeva-Bold, 'PNA Noeva';
        font-size: 84.42px;
        font-weight: 700;
      }
    </style>
  </defs>
  <g>
    <path class="cls-2" d="M39.79,1.45c4.1.27,8.2,2.14,10.68,6.49,6.74,11.87,13.48,23.74,19.98,35.74,3.49,6.44.89,14.4-5.37,17.84-6.71,3.69-14.84,1.69-18.66-4.96-6.69-11.65-13.27-23.37-19.62-35.2-4.96-9.25,1.77-20.05,12.99-19.91Z"/>
    <path class="cls-2" d="M79.94,2.22c4.1.27,8.2,2.14,10.68,6.49,6.74,11.87,13.48,23.74,19.98,35.74,3.49,6.44.89,14.4-5.37,17.84-6.71,3.69-14.84,1.69-18.66-4.96-6.69-11.65-13.27-23.37-19.62-35.2-4.96-9.25,1.77-20.05,12.99-19.91Z"/>
    <path class="cls-2" d="M5.12,48.32c.18-7.59,6.24-13.36,13.85-13.21,7.7.15,13.56,6.35,13.35,14.09-.21,7.48-6.48,13.27-14.07,13.02-7.65-.26-13.31-6.26-13.13-13.9Z"/>
    <path class="cls-2" d="M103.5,16.15c.18-7.59,6.24-13.36,13.85-13.21,7.7.15,13.56,6.35,13.35,14.09-.21,7.48-6.48,13.27-14.07,13.02-7.65-.26-13.31-6.26-13.13-13.9Z"/>
  </g>
  <g>
    <path class="cls-3" d="M39.04,1.46c4.1.27,8.2,2.14,10.68,6.49,6.74,11.87,13.48,23.74,19.98,35.74,3.49,6.44.89,14.4-5.37,17.84-6.71,3.69-14.84,1.69-18.66-4.96-6.69-11.65-13.27-23.37-19.62-35.2-4.96-9.25,1.77-20.05,12.99-19.91Z"/>
    <path class="cls-3" d="M79.16,2.31c4.1.27,8.2,2.14,10.68,6.49,6.74,11.87,13.48,23.74,19.98,35.74,3.49,6.44.89,14.4-5.37,17.84-6.71,3.69-14.84,1.69-18.66-4.96-6.69-11.65-13.27-23.37-19.62-35.2-4.96-9.25,1.77-20.05,12.99-19.91Z"/>
    <path class="cls-3" d="M4.37,48.33c.18-7.59,6.24-13.36,13.85-13.21,7.7.15,13.56,6.35,13.35,14.09-.21,7.48-6.48,13.27-14.07,13.02-7.65-.26-13.31-6.26-13.13-13.9Z"/>
    <path class="cls-3" d="M102.75,16.16c.18-7.59,6.24-13.36,13.85-13.21,7.7.15,13.56,6.35,13.35,14.09-.21,7.48-6.48,13.27-14.07,13.02-7.65-.26-13.31-6.26-13.13-13.9Z"/>
  </g>
  <g class="cls-4">
    <g>
      <path class="cls-2" d="M580.07,19.09c-3.27,0-5.93-2.66-5.93-5.93s2.66-5.93,5.93-5.93,5.93,2.66,5.93,5.93-2.66,5.93-5.93,5.93ZM580.07,8.03c-2.83,0-5.13,2.3-5.13,5.13s2.3,5.13,5.13,5.13,5.13-2.3,5.13-5.13-2.3-5.13-5.13-5.13Z"/>
      <path class="cls-2" d="M582.11,16.18l-1.39-1.98c-.17.01-.31.02-.41.02h-1.59v1.96h-.92v-6.45h2.52c.84,0,1.49.2,1.97.6.48.4.72.95.72,1.65,0,.5-.12.92-.37,1.27s-.6.61-1.05.76l1.53,2.16h-1ZM581.63,13.06c.31-.25.46-.61.46-1.08s-.15-.82-.46-1.07c-.31-.25-.75-.37-1.34-.37h-1.57v2.9h1.57c.58,0,1.03-.13,1.34-.38Z"/>
    </g>
  </g>
  <g>
    <path class="cls-3" d="M579.71,19.09c-3.27,0-5.93-2.66-5.93-5.93s2.66-5.93,5.93-5.93,5.93,2.66,5.93,5.93-2.66,5.93-5.93,5.93ZM579.71,8.03c-2.83,0-5.13,2.3-5.13,5.13s2.3,5.13,5.13,5.13,5.13-2.3,5.13-5.13-2.3-5.13-5.13-5.13Z"/>
    <path class="cls-3" d="M581.75,16.18l-1.39-1.98c-.17.01-.31.02-.41.02h-1.59v1.96h-.92v-6.45h2.52c.84,0,1.49.2,1.97.6.48.4.72.95.72,1.65,0,.5-.12.92-.37,1.27s-.6.61-1.05.76l1.53,2.16h-1ZM581.26,13.06c.31-.25.46-.61.46-1.08s-.15-.82-.46-1.07c-.31-.25-.75-.37-1.34-.37h-1.57v2.9h1.57c.58,0,1.03-.13,1.34-.38Z"/>
  </g>
  <text class="cls-5" transform="translate(150.11 65.34)"><tspan class="cls-6" x="0" y="0">MEGA</tspan><tspan class="cls-1" x="218.22" y="0">SOFT</tspan></text>
</svg>