<?xml version="1.0" encoding="UTF-8"?>
<svg id="Calque_1" data-name="Calque 1" xmlns="http://www.w3.org/2000/svg" viewBox="0 0 571 66">
  <defs>
    <style>
      .cls-1 {
        font-family: NeueMontreal-Regular, 'Neue Montreal';
        font-size: 77.06px;
        opacity: .85;
      }

      .cls-2 {
        fill: #f95302;
      }

      .cls-2, .cls-3 {
        stroke-width: 0px;
      }

      .cls-4 {
        opacity: .85;
      }

      .cls-5, .cls-3 {
        fill: #fff;
      }

      .cls-6 {
        font-family: PNANoeva-Bold, 'PNA Noeva';
        font-size: 84.42px;
        font-weight: 700;
      }
    </style>
  </defs>
  <g>
    <path class="cls-2" d="M36.63,3.25c3.9.26,7.8,2.03,10.16,6.18,6.41,11.29,12.83,22.58,19.01,34,3.32,6.13.84,13.7-5.1,16.97-6.38,3.51-14.12,1.61-17.75-4.72-6.36-11.08-12.63-22.23-18.66-33.49-4.72-8.8,1.69-19.08,12.36-18.94Z"/>
    <path class="cls-2" d="M74.83,3.98c3.9.26,7.8,2.03,10.16,6.18,6.41,11.29,12.83,22.58,19.01,34,3.32,6.13.84,13.7-5.1,16.97-6.38,3.51-14.12,1.61-17.75-4.72-6.36-11.08-12.63-22.23-18.66-33.49-4.72-8.8,1.69-19.08,12.36-18.94Z"/>
    <path class="cls-2" d="M3.66,47.83c.17-7.22,5.93-12.71,13.18-12.57,7.32.15,12.9,6.04,12.7,13.4-.2,7.11-6.16,12.63-13.38,12.38-7.27-.25-12.67-5.95-12.49-13.22Z"/>
    <path class="cls-2" d="M97.25,17.23c.17-7.22,5.93-12.71,13.18-12.57,7.32.15,12.9,6.04,12.7,13.4-.2,7.11-6.16,12.63-13.38,12.38-7.27-.25-12.67-5.95-12.49-13.22Z"/>
  </g>
  <g>
    <path class="cls-3" d="M35.92,3.26c3.9.26,7.8,2.03,10.16,6.18,6.41,11.29,12.83,22.58,19.01,34,3.32,6.13.84,13.7-5.1,16.97-6.38,3.51-14.12,1.61-17.75-4.72-6.36-11.08-12.63-22.23-18.66-33.49-4.72-8.8,1.69-19.08,12.36-18.94Z"/>
    <path class="cls-3" d="M74.09,4.07c3.9.26,7.8,2.03,10.16,6.18,6.41,11.29,12.83,22.58,19.01,34,3.32,6.13.84,13.7-5.1,16.97-6.38,3.51-14.12,1.61-17.75-4.72-6.36-11.08-12.63-22.23-18.66-33.49-4.72-8.8,1.69-19.08,12.36-18.94Z"/>
    <path class="cls-3" d="M2.94,47.84c.17-7.22,5.93-12.71,13.18-12.57,7.32.15,12.9,6.04,12.7,13.4-.2,7.11-6.16,12.63-13.38,12.38-7.27-.25-12.67-5.95-12.49-13.22Z"/>
    <path class="cls-3" d="M96.53,17.24c.17-7.22,5.93-12.71,13.18-12.57,7.32.15,12.9,6.04,12.7,13.4-.2,7.11-6.16,12.63-13.38,12.38-7.27-.25-12.67-5.95-12.49-13.22Z"/>
  </g>
  <g class="cls-4">
    <g>
      <path class="cls-2" d="M563.07,16.59c-3.27,0-5.93-2.66-5.93-5.93s2.66-5.93,5.93-5.93,5.93,2.66,5.93,5.93-2.66,5.93-5.93,5.93ZM563.07,5.53c-2.83,0-5.13,2.3-5.13,5.13s2.3,5.13,5.13,5.13,5.13-2.3,5.13-5.13-2.3-5.13-5.13-5.13Z"/>
      <path class="cls-2" d="M565.11,13.68l-1.39-1.98c-.17.01-.31.02-.41.02h-1.59v1.96h-.92v-6.45h2.52c.84,0,1.49.2,1.97.6.48.4.72.95.72,1.65,0,.5-.12.92-.37,1.27s-.6.61-1.05.76l1.53,2.16h-1ZM564.63,10.56c.31-.25.46-.61.46-1.08s-.15-.82-.46-1.07c-.31-.25-.75-.37-1.34-.37h-1.57v2.9h1.57c.58,0,1.03-.13,1.34-.38Z"/>
    </g>
  </g>
  <g>
    <path class="cls-3" d="M562.71,16.59c-3.27,0-5.93-2.66-5.93-5.93s2.66-5.93,5.93-5.93,5.93,2.66,5.93,5.93-2.66,5.93-5.93,5.93ZM562.71,5.53c-2.83,0-5.13,2.3-5.13,5.13s2.3,5.13,5.13,5.13,5.13-2.3,5.13-5.13-2.3-5.13-5.13-5.13Z"/>
    <path class="cls-3" d="M564.75,13.68l-1.39-1.98c-.17.01-.31.02-.41.02h-1.59v1.96h-.92v-6.45h2.52c.84,0,1.49.2,1.97.6.48.4.72.95.72,1.65,0,.5-.12.92-.37,1.27s-.6.61-1.05.76l1.53,2.16h-1ZM564.26,10.56c.31-.25.46-.61.46-1.08s-.15-.82-.46-1.07c-.31-.25-.75-.37-1.34-.37h-1.57v2.9h1.57c.58,0,1.03-.13,1.34-.38Z"/>
  </g>
  <text class="cls-5" transform="translate(133.11 62.84)"><tspan class="cls-6" x="0" y="0">MEGA</tspan><tspan class="cls-1" x="218.22" y="0">SOFT</tspan></text>
</svg>