<?xml version="1.0" encoding="UTF-8"?>
<svg id="Calque_1" data-name="Calque 1" xmlns="http://www.w3.org/2000/svg" xmlns:xlink="http://www.w3.org/1999/xlink" viewBox="0 0 403.53 53.69">
  <defs>
    <style>
      .cls-1 {
        fill: #f6f6f6;
      }

      .cls-1, .cls-2 {
        stroke-width: 0px;
      }

      .cls-2 {
        fill: none;
      }

      .cls-3 {
        clip-path: url(#clippath-1);
      }

      .cls-4 {
        clip-path: url(#clippath);
      }
    </style>
    <clipPath id="clippath">
      <rect class="cls-2" x="-37.15" y="-12.75" width="462.1" height="82.17"/>
    </clipPath>
    <clipPath id="clippath-1">
      <rect class="cls-2" x="-37.15" y="-10.61" width="456.81" height="82.17"/>
    </clipPath>
  </defs>
  <g class="cls-4">
    <g>
      <path class="cls-1" d="M43.32,46.01c-4.51,2.48-9.97,1.14-12.53-3.33-4.49-7.82-8.91-15.68-13.18-23.63-3.33-6.21,1.2-13.47,8.73-13.38,2.75.19,5.51,1.44,7.17,4.37,4.52,7.97,9.05,15.94,13.41,23.99,2.35,4.33.6,9.67-3.6,11.98Z"/>
      <path class="cls-1" d="M70.28,46.53c-4.51,2.48-9.97,1.14-12.54-3.33-4.48-7.82-8.9-15.69-13.17-23.63-3.33-6.22,1.19-13.47,8.73-13.38,2.74.19,5.51,1.43,7.17,4.37,4.53,7.96,9.05,15.93,13.41,23.99,2.34,4.33.59,9.67-3.6,11.98Z"/>
      <path class="cls-1" d="M87.38,16.13c-.14,5.03-4.35,8.91-9.44,8.74-5.14-.17-8.94-4.2-8.82-9.33.12-5.09,4.19-8.97,9.3-8.87,5.17.11,9.11,4.26,8.96,9.46Z"/>
      <path class="cls-1" d="M21.32,37.74c-.14,5.01-4.35,8.91-9.44,8.74-5.13-.18-8.94-4.2-8.81-9.33.11-5.1,4.18-8.97,9.3-8.87,5.16.1,9.1,4.26,8.95,9.46Z"/>
    </g>
    <g>
      <path class="cls-1" d="M217.51,33.92l1.87,14.04h-3.84l-2.49-6.39c-.71-1.77.86-2.38.15-4.16l-.91-.3-1.27,4.61c-1.97,3.96-5.32,7.05-10.84,7.05-12.42,0-20.98-8.67-20.98-21.08,0-13.18,9.17-21.08,20.57-21.08,7.2,0,14.09,4.35,17.59,10.94l-7.46,1.73c-2.07-3.91-6.33-6.13-10.38-6.13-6.64,0-12.32,6.02-12.32,14.54s5.68,14.75,12.32,14.75,10.09-4.21,11.05-8.31v-3.55h-11.41l-.04-5.48h18.39v8.82Z"/>
      <polygon class="cls-1" points="155.83 41.47 177.67 41.47 177.67 47.96 147.82 47.96 147.82 7.42 177.17 7.42 177.17 13.96 155.83 13.96 155.83 21.86 172.1 21.86 172.1 28.35 155.83 28.35 155.83 41.47"/>
      <path class="cls-1" d="M289.04,36.31c0,5.85-4.33,11.3-14.51,11.3-9.51,0-16.88-5.06-17.44-14.28h5.06c.57,5.51,3.94,9.78,12.38,9.78,6.97,0,9.45-3.2,9.45-6.8,0-5.52-2.98-6.53-11.98-8.61-6.02-1.41-13.22-3.49-13.22-11.31,0-6.35,4.89-10.57,13.78-10.57s14.51,4.39,15.19,12.71h-5.06c-.74-5.4-3.77-8.21-10.13-8.21-5.68,0-8.72,2.19-8.72,5.51,0,5.34,4.33,6.08,10.24,7.54,9.06,2.25,14.96,3.77,14.96,12.94Z"/>
      <path class="cls-1" d="M313.01,5.82c-11.82,0-19.69,8.77-19.69,20.87s7.87,20.92,19.69,20.92,19.69-8.83,19.69-20.92-7.88-20.87-19.69-20.87ZM313.01,43.11c-10.13,0-14.63-7.76-14.63-16.42s4.5-16.37,14.63-16.37,14.62,7.7,14.62,16.37-4.5,16.42-14.62,16.42Z"/>
      <polygon class="cls-1" points="338.72 6.61 366 6.61 366 11.11 343.78 11.11 343.78 24.16 361.72 24.16 361.72 28.66 343.78 28.66 343.78 46.83 338.72 46.83 338.72 6.61"/>
      <path class="cls-1" d="M139.97,7.42l4.3,40.54h-8.01l-1.97-24.03c-.2-2.33,1.93-2.53,1.72-4.91l-1.01-.66-2.89,8.26-5.32,16.12h-8.01l-5.22-16.02-2.89-8.31-1.02.66c-.2,2.39,1.93,2.59,1.73,4.92l-1.98,23.97h-8l4.25-40.54h7.3l7.6,21.33c1.52,4.46,1.52,7.3,1.52,8.41h1.53c0-1.11,0-3.95,1.52-8.41l7.6-21.33h7.25Z"/>
      <path class="cls-1" d="M235.55,7.42l-14.59,40.54h8.62l2.48-7.55h13.94l2.47,7.55h8.62l-14.54-40.54h-7ZM233.83,34.94l3.7-11.66c1.01-3.25,1.01-5.22,1.01-5.98h1.02c0,.76,0,2.73,1.01,5.98l3.65,11.66h-10.39Z"/>
      <polygon class="cls-1" points="400.54 6.61 400.54 11.11 387.15 11.11 387.15 46.83 382.09 46.83 382.09 11.11 368.7 11.11 368.7 6.61 400.54 6.61"/>
    </g>
    <g class="cls-3">
      <image width="1936" height="1936" transform="translate(-15.59 -195.03) scale(.22)" xlink:href="../services/mega.png"/>
    </g>
  </g>
</svg>