<?xml version="1.0" encoding="UTF-8"?>
<svg id="Calque_1" data-name="Calque 1" xmlns="http://www.w3.org/2000/svg" viewBox="0 0 587 78">
  <defs>
    <style>
      .cls-1 {
        fill: #f95302;
      }

      .cls-1, .cls-2, .cls-3, .cls-4 {
        stroke-width: 0px;
      }

      .cls-2 {
        fill: #d8262c;
      }

      .cls-3 {
        fill: #f4f6ff;
      }

      .cls-5 {
        opacity: .85;
      }

      .cls-4 {
        fill: #fff;
      }
    </style>
  </defs>
  <g class="cls-5">
    <path class="cls-1" d="M572.07,8.73c-.06,0-.12,0-.18.01-3.19.09-5.75,2.71-5.75,5.92s2.56,5.83,5.75,5.92c.06.01.12.01.18.01,3.27,0,5.93-2.66,5.93-5.93s-2.66-5.93-5.93-5.93ZM572.07,9.53c2.83,0,5.13,2.3,5.13,5.13s-2.3,5.12-5.13,5.12c-.06,0-.12,0-.18-.01-2.75-.09-4.95-2.35-4.95-5.11s2.2-5.03,4.95-5.12c.06,0,.12,0,.18,0Z"/>
    <path class="cls-1" d="M573.59,15.52c.45-.16.8-.41,1.05-.76.25-.35.37-.78.37-1.28,0-.7-.24-1.25-.72-1.64-.48-.4-1.14-.6-1.97-.6h-2.52v6.44h.92v-1.96h1.65c.09,0,.21,0,.35-.02l1.39,1.98h1.01l-1.53-2.16ZM572.29,14.94h-1.57v-2.9h1.57c.58,0,1.03.12,1.34.37.3.25.46.61.46,1.07s-.16.83-.46,1.08c-.31.25-.76.38-1.34.38Z"/>
  </g>
  <g>
    <path class="cls-4" d="M571.89,8.74c-.06-.01-.12-.01-.18-.01-3.27,0-5.93,2.66-5.93,5.93s2.66,5.93,5.93,5.93c.06,0,.12,0,.18-.01,3.19-.09,5.75-2.71,5.75-5.92s-2.56-5.83-5.75-5.92ZM571.71,19.78c-2.83,0-5.13-2.3-5.13-5.12s2.3-5.13,5.13-5.13c.06,0,.12,0,.18,0,2.75.09,4.95,2.35,4.95,5.12s-2.2,5.02-4.95,5.11c-.06.01-.12.01-.18.01Z"/>
    <path class="cls-4" d="M573.23,15.52c.45-.16.8-.41,1.05-.76.24-.35.37-.78.37-1.28,0-.7-.24-1.25-.72-1.64-.48-.4-1.14-.6-1.97-.6h-2.52v6.44h.92v-1.96h1.6c.09,0,.23,0,.4-.02v.02s1.39,1.96,1.39,1.96h1.01l-1.53-2.16ZM570.36,14.94v-2.9h1.57c.58,0,1.03.12,1.33.37.31.25.46.61.46,1.07s-.15.83-.46,1.08c-.3.25-.75.38-1.33.38h-1.57Z"/>
  </g>
  <path class="cls-3" d="M37.52,6.5c4.03.27,8.06,2.1,10.5,6.38,6.63,11.66,13.25,23.33,19.64,35.13,3.43,6.33.87,14.15-5.27,17.54-6.6,3.63-14.59,1.66-18.34-4.88-6.57-11.45-13.05-22.96-19.28-34.6-4.88-9.1,1.74-19.71,12.77-19.57Z"/>
  <path class="cls-3" d="M76.96,7.34c4.03.27,8.06,2.1,10.5,6.38,6.63,11.66,13.25,23.33,19.64,35.13,3.43,6.33.87,14.15-5.27,17.54-6.6,3.63-14.59,1.66-18.34-4.88-6.57-11.45-13.05-22.96-19.28-34.6-4.88-9.1,1.74-19.71,12.77-19.57Z"/>
  <path class="cls-3" d="M3.45,52.56c.18-7.46,6.13-13.13,13.61-12.98,7.57.15,13.33,6.24,13.12,13.85-.21,7.35-6.36,13.05-13.82,12.79-7.52-.25-13.09-6.15-12.91-13.66Z"/>
  <path class="cls-3" d="M100.15,20.94c.18-7.46,6.13-13.13,13.61-12.98,7.57.15,13.33,6.24,13.12,13.85-.21,7.35-6.36,13.05-13.82,12.79-7.52-.25-13.09-6.15-12.91-13.66Z"/>
  <g>
    <path class="cls-2" d="M36.52,6.5c4.03.27,8.06,2.1,10.5,6.38,6.63,11.66,13.25,23.33,19.64,35.13,3.43,6.33.87,14.15-5.27,17.54-6.6,3.63-14.59,1.66-18.34-4.88-6.57-11.45-13.05-22.96-19.28-34.6-4.88-9.1,1.74-19.71,12.77-19.57Z"/>
    <path class="cls-2" d="M75.96,7.34c4.03.27,8.06,2.1,10.5,6.38,6.63,11.66,13.25,23.33,19.64,35.13,3.43,6.33.87,14.15-5.27,17.54-6.6,3.63-14.59,1.66-18.34-4.88-6.57-11.45-13.05-22.96-19.28-34.6-4.88-9.1,1.74-19.71,12.77-19.57Z"/>
    <path class="cls-2" d="M2.45,52.56c.18-7.46,6.13-13.13,13.61-12.98,7.57.15,13.33,6.24,13.12,13.85-.21,7.35-6.36,13.05-13.82,12.79-7.52-.25-13.09-6.15-12.91-13.66Z"/>
    <path class="cls-2" d="M99.15,20.94c.18-7.46,6.13-13.13,13.61-12.98,7.57.15,13.33,6.24,13.12,13.85-.21,7.35-6.36,13.05-13.82,12.79-7.52-.25-13.09-6.15-12.91-13.66Z"/>
  </g>
  <polygon class="cls-4" points="216.07 58.87 246.39 58.87 246.39 67.88 204.96 67.88 204.96 11.6 245.69 11.6 245.69 20.68 216.07 20.68 216.07 31.65 238.65 31.65 238.65 40.65 216.07 40.65 216.07 58.87"/>
  <path class="cls-4" d="M194.05,11.6l5.98,56.28h-11.12l-2.74-33.35c-.28-3.23,2.67-3.51,2.39-6.82l-1.41-.91-4.01,11.46-7.38,22.37h-11.12l-7.24-22.23-4.01-11.53-1.41.91c-.28,3.31,2.68,3.59,2.39,6.82l-2.74,33.28h-11.11l5.9-56.28h10.13l10.56,29.62c2.11,6.19,2.11,10.13,2.11,11.67h2.11c0-1.54,0-5.48,2.11-11.67l10.55-29.62h10.06Z"/>
  <path class="cls-4" d="M301.68,48.39l2.6,19.49h-5.34l-3.45-8.87c-.98-2.46,1.2-3.3.21-5.76l-1.26-.43-1.76,6.41c-2.75,5.48-7.39,9.77-15.06,9.77-17.23,0-29.12-12.03-29.12-29.26,0-18.29,12.73-29.26,28.56-29.26,9.99,0,19.56,6.05,24.41,15.19l-10.34,2.39c-2.88-5.41-8.79-8.51-14.42-8.51-9.22,0-17.09,8.37-17.09,20.19s7.87,20.47,17.09,20.47,14-5.84,15.33-11.54v-4.92h-15.82l-.07-7.6h25.53v12.24Z"/>
  <path class="cls-4" d="M326.73,11.6l-20.26,56.28h11.96l3.44-10.48h19.35l3.45,10.48h11.95l-20.18-56.28h-9.71ZM324.34,49.8l5.13-16.18c1.41-4.5,1.41-7.24,1.41-8.3h1.41c0,1.06,0,3.8,1.4,8.3l5.07,16.18h-14.42Z"/>
  <polygon class="cls-4" points="559.78 11 559.78 17.32 540.98 17.32 540.98 67.49 533.87 67.49 533.87 17.32 515.07 17.32 515.07 11 559.78 11"/>
  <polygon class="cls-4" points="472.96 11 511.27 11 511.27 17.32 480.07 17.32 480.07 35.65 505.27 35.65 505.27 41.97 480.07 41.97 480.07 67.49 472.96 67.49 472.96 11"/>
  <path class="cls-4" d="M436.85,9.9c-16.59,0-27.64,12.32-27.64,29.31s11.05,29.38,27.64,29.38,27.65-12.4,27.65-29.38-11.06-29.31-27.65-29.31ZM436.85,62.27c-14.22,0-20.53-10.9-20.53-23.06s6.31-22.99,20.53-22.99,20.54,10.82,20.54,22.99-6.32,23.06-20.54,23.06Z"/>
  <path class="cls-4" d="M403.2,52.71c0,8.22-6.08,15.88-20.38,15.88-13.35,0-23.7-7.11-24.49-20.06h7.11c.79,7.74,5.53,13.74,17.38,13.74,9.79,0,13.27-4.5,13.27-9.56,0-7.74-4.19-9.16-16.83-12.08-8.45-1.98-18.56-4.9-18.56-15.88,0-8.93,6.87-14.85,19.35-14.85s20.38,6.16,21.33,17.85h-7.11c-1.02-7.58-5.29-11.53-14.22-11.53-7.97,0-12.24,3.08-12.24,7.74,0,7.5,6.08,8.53,14.38,10.59,12.72,3.16,21.01,5.29,21.01,18.16Z"/>
</svg>